<?xml version="1.0" standalone="no"?>
<!DOCTYPE svg PUBLIC "-//W3C//DTD SVG 1.1//EN" "http://www.w3.org/Graphics/SVG/1.1/DTD/svg11.dtd" >
<!--
2013-9-30: Created.
-->
<svg>
<metadata>
Created by iconfont
</metadata>
<defs>

<font id="tmlOfficialFont" horiz-adv-x="1024" >
  <font-face
    font-family="tmlOfficialFont"
    font-weight="500"
    font-stretch="normal"
    units-per-em="1024"
    ascent="896"
    descent="-128"
  />
    <missing-glyph />
    
    <glyph glyph-name="top-search" unicode="&#59037;" d="M811.699 9.780999999999949l-158.753 158.76c-54.46-39.563-121.282-63.19-193.755-63.19-182.44 0-330.339 147.899-330.339 330.335 0 182.443 147.885 330.342 330.339 330.342 182.457 0 330.322-147.885 330.322-330.342 0-72.469-23.607-139.274-63.185-193.741l163.203-163.202-77.832-68.962z m-352.508 682.85c-141.896 0-256.927-115.028-256.927-256.931 0-141.875 115.032-256.923 256.927-256.923S716.136 293.812 716.136 435.7c-0.014 141.903-115.049 256.931-256.945 256.931z"  horiz-adv-x="1024" />

    
    <glyph glyph-name="download" unicode="&#59074;" d="M887.816 158.604v-25.028c0-55.349-44.869-100.224-100.26-100.224H236.285c-55.395 0-100.259 44.875-100.259 100.224v125.25c0.011 13.833 11.228 25.057 25.065 25.064 13.836-0.014 25.051-11.231 25.065-25.064v-125.251c0-27.659 22.466-50.13 50.129-50.13h551.272c27.66 0 50.13 22.471 50.13 50.13V258.826c-0.014 13.84 11.195 25.072 25.044 25.087 13.839 0.006 25.072-11.211 25.086-25.051v-100.258zM184.163 505.306c-4.695-7.303 15.718-21.735 21.868-27.885l291.401-291.416c8.372-8.386 21.961-8.4 30.351-0.021 0.008 0.006 0.019 0.014 0.025 0.021l291.043 291.064c6.15 6.146 23.452 19.381 21.346 27.817-1.664 6.651-14.378 6.07-12.852 6.106-0.338-0.008-0.667-0.01-1.004-0.008h-209.27V720.258H407.806V510.99H198.54c-8.686-0.005-11.202-0.767-14.377-5.684z"  horiz-adv-x="1024" />

    
    <glyph glyph-name="square-fill-yes" unicode="&#59090;" d="M803.027 766.85H216.973c-48.468 0-87.908-39.44-87.908-87.908v-586.054c0-48.482 39.44-87.908 87.908-87.908h586.054c48.482 0 87.908 39.426 87.908 87.908V678.942c0.001 48.468-39.425 87.908-87.908 87.908z m-66.951-267.001L450.888 214.65499999999997c-5.597-5.59-16.777-11.181-27.959-11.181-11.18 0-22.369 5.591-27.965 11.181L283.129 332.08799999999997c-16.784 16.778-16.784 39.146 0 55.919 16.771 16.777 39.14 16.777 55.917 0l89.474-89.468 257.228 257.228c16.783 16.784 39.146 16.784 55.924 0 11.175-16.772 11.175-39.141-5.596-55.918z"  horiz-adv-x="1024" />

    
    <glyph glyph-name="square" unicode="&#59091;" d="M801.027 2.0639999999999645H214.973c-48.468 0-87.908 39.426-87.908 87.908V676.027c0 48.468 39.44 87.908 87.908 87.908h586.054c48.482 0 87.908-39.44 87.908-87.908v-586.054c0.001-48.483-39.425-87.909-87.908-87.909zM214.973 705.33c-16.146 0-29.303-13.156-29.303-29.303v-586.054c0-16.175 13.157-29.302 29.303-29.302h586.054c16.182 0 29.302 13.12 29.302 29.302V676.027c0 16.147-13.127 29.303-29.302 29.303H214.973z"  horiz-adv-x="1024" />

    
    <glyph glyph-name="photo-small-left" unicode="&#59106;" d="M572.695 180.331c-8.528-8.522-22.736-8.931-31.246-0.408L356.347 365.018c-0.805 0.813-1.623 1.623-2.434 3.246-4.465 4.478-6.497 10.15-6.497 15.831 0 5.68 2.032 11.774 6.497 16.233l2.434 2.439 185.102 185.09c8.521 8.522 22.321 8.522 31.246-0.409 8.529-8.522 8.932-22.73 0.415-31.253l-172.925-172.1 172.51-172.511c8.523-8.522 8.523-22.73 0-31.253z"  horiz-adv-x="1024" />

    
    <glyph glyph-name="photo-small-right" unicode="&#59108;" d="M492.02 213.119L664.53 385.63l-172.926 172.1c-8.517 8.523-8.114 22.731 0.415 31.253 8.925 8.932 22.725 8.932 31.246 0.409l185.102-185.09 2.435-2.439c4.465-4.459 6.497-10.554 6.497-16.233 0-5.681-2.032-11.354-6.497-15.831-0.812-1.623-1.629-2.434-2.435-3.246L523.266 181.458c-8.51-8.522-22.718-8.114-31.246 0.408-8.523 8.523-8.523 22.731 0 31.253z"  horiz-adv-x="1024" />

    
    <glyph glyph-name="angle-down" unicode="&#59110;" d="M671.555 477.204L512.01 317.659 352.466 477.204l-53.186-53.187 212.73-212.723 212.711 212.723-53.166 53.187z"  horiz-adv-x="1024" />

    
    <glyph glyph-name="angle-up" unicode="&#59112;" d="M724.721 344.482L512.01 557.205 299.28 344.482l53.186-53.187L512.01 450.841l159.545-159.545 53.166 53.186z"  horiz-adv-x="1024" />

    
    <glyph glyph-name="refresh-button" unicode="&#59143;" d="M799.274 672.305C688.176 783.419 526.499 821.589 377.429 771.828l25.975-77.877c119.283 39.922 248.847 9.301 337.841-79.692 62.263-62.345 96.627-145.099 96.627-233.212 0-68.662-21.075-133.965-59.712-188.959l-68.355 68.314v-205.237h205.239l-78.297 78.298a407.962 407.962 0 0 1 83.221 247.584c0 109.99-42.895 213.412-120.694 291.258zM299.33 506.671v205.23H94.108l82.563-82.57c-52.147-70.393-80.73-154.962-80.683-244.162 0-110.004 42.902-213.442 120.701-291.282 78.899-78.852 183.194-120.922 290.408-120.922a414.905 414.905 0 0 1 131.459 21.44l-25.988 77.909c-119.472-39.787-248.792-9.332-337.832 79.62-62.273 62.368-96.637 145.186-96.637 233.298 0 67.173 20.083 131.254 57.206 185.527l64.025-64.088z"  horiz-adv-x="1024" />

    
    <glyph glyph-name="preview" unicode="&#59144;" d="M915.17 422.655c-51.201 69.308-182.474 209.992-404.641 209.992-221.352 0-353.654-141.028-405.231-210.23-16.591-22.287-16.87-52.861-0.581-75.355 50.223-69.405 179.737-209.71 405.812-209.71 223.243 0 353.883 140.515 404.777 209.863 16.443 22.469 16.386 53.027-0.136 75.44zM510.173 214.941c-93.935 0-170.078 76.135-170.078 170.046 0 93.938 76.143 170.078 170.078 170.078 93.911 0 170.045-76.14 170.045-170.078 0.001-93.911-76.134-170.046-170.045-170.046z m91.81 170.046c0-50.676-41.134-91.801-91.81-91.801-50.712 0-91.797 41.125-91.797 91.801 0 50.709 41.089 91.798 91.797 91.798 50.692 0 91.81-41.089 91.81-91.798z"  horiz-adv-x="1024" />

    
    <glyph glyph-name="link" unicode="&#59176;" d="M596.494 463.122c63.781-64.305 63.781-168.002 0-232.307L448.442 82.66200000000003c-64.292-63.898-168.118-63.896-232.411 0.001l-2.734 2.782c-63.921 64.265-63.92 168.1 0 232.361l103.638 103.488c-0.499-30.411 4.968-61.112 16.645-89.774l-66.973-66.973c-34.72-34.744-34.722-91.05-0.003-125.795l2.783-2.732c34.785-34.672 91.061-34.671 125.843 0.002l148.102 148.049c34.699 34.776 34.698 91.075 0.001 125.845l-2.832 2.733a87.422 87.422 0 0 1-17.736 13.611l54.152 54.157c5.811-4.424 11.526-9.194 16.841-14.561l2.736-2.684v-0.05z m216.112 216.117l-2.884 2.736c-64.262 63.918-168.091 63.919-232.356 0.001L429.314 533.871c-63.957-64.268-63.957-168.136 0-232.409l2.733-2.684c5.366-5.218 11.029-10.037 16.843-14.559l54.154 54.255a88.42 88.42 0 0 0-17.689 13.611l-2.783 2.688c-34.701 34.786-34.702 91.1 0 125.887l148.155 148.054c34.72 34.683 90.969 34.684 125.691-0.001l2.784-2.732c34.695-34.772 34.696-91.067 0.001-125.841l-66.875-66.97c11.624-28.717 17.093-59.321 16.544-89.827L812.511 446.88c63.921 64.266 63.923 168.096-0.002 232.36l0.097-0.001z"  horiz-adv-x="1024" />

    
    <glyph glyph-name="adress" unicode="&#58932;" d="M719.95392 325.22752c23.1424 37.60128 36.30592 81.66912 36.30592 128.78336 0 137.61024-113.40288 249.17504-253.184 249.17504-139.93984 0-253.34272-111.5648-253.34272-249.17504 0-47.11424 13.2096-90.95168 36.22912-128.55296 1.29536-4.3008 3.73248-8.448 7.30624-11.9552l1.71008-1.70496a251.05408 251.05408 0 0 1 60.66176-60.54912l125.09184-124.7488a29.55776 29.55776 0 0 1 28.01152-6.8096c7.99232-0.72704 16.09728 1.85856 22.10304 7.72096l124.75392 127.5648a257.16736 257.16736 0 0 1 55.44448 56.704l1.9456 2.05824a26.95168 26.95168 0 0 1 6.9632 11.48928zM502.95808 531.09248c43.38176 0 78.58688-34.72384 78.58688-77.42464 0-42.81344-35.20512-77.44-78.58688-77.44-43.27424 0-78.47424 34.62656-78.47424 77.44 0 42.7008 35.20512 77.42464 78.47424 77.42464z"  horiz-adv-x="1024" />

    
    <glyph glyph-name="manyi" unicode="&#58940;" d="M501.64736 67.30752a45.48608 45.48608 0 0 0-26.87488 8.91392c-5.26336 3.93728-52.50048 39.48544-108.21632 88.21248-74.27584 65.11616-127.65696 121.79456-158.42816 168.57088-14.05952 21.2736-27.35616 42.28096-37.76 65.96096-12.33408 28.3392-18.31936 56.19712-18.31936 85.52448 0 53.86752 20.0448 104.6784 56.32 143.04256 37.23776 39.56736 87.20896 61.32224 140.59008 61.32224 59.61216 0 115.80928-28.3392 152.68352-75.6224 37.03808 47.27808 93.19424 75.6224 152.84736 75.6224 53.3504 0 103.1936-21.75488 140.5952-61.32224 36.2752-38.35904 56.27392-89.17504 56.27392-143.04256 0-66.34496-32.32768-115.56864-56.02816-151.48032-30.81728-46.77632-84.16256-103.45472-158.43328-168.56576-55.8336-48.73216-103.11168-84.28032-108.25728-88.21248a45.33248 45.33248 0 0 0-26.99264-8.92416z"  horiz-adv-x="1024" />

    
    <glyph glyph-name="tongji" unicode="&#59363;" d="M179.2 179.2a25.6 25.6 0 0 0 25.6-25.6v-102.4a25.6 25.6 0 1 0-51.2 0v102.4a25.6 25.6 0 0 0 25.6 25.6z m204.8 102.4a25.6 25.6 0 0 0 25.6-25.6v-204.8a25.6 25.6 0 1 0-51.2 0v204.8a25.6 25.6 0 0 0 25.6 25.6z m204.8 102.4a25.6 25.6 0 0 0 25.6-25.6v-307.2a25.6 25.6 0 1 0-51.2 0v307.2a25.6 25.6 0 0 0 25.6 25.6z m204.8 102.4a25.6 25.6 0 0 0 25.6-25.6v-409.6a25.6 25.6 0 1 0-51.2 0v409.6a25.6 25.6 0 0 0 25.6 25.6zM424.6016 561.408L179.5072 381.952a25.6 25.6 0 0 0-30.208 41.3184l263.7824 193.1264a25.6 25.6 0 0 0 34.1504-3.584l87.9616-97.8944 235.0592 175.1552a25.6 25.6 0 1 0 30.6176-41.0624l-253.7984-189.0816a25.6 25.6 0 0 0-34.304 3.3792L424.6016 561.408z"  horiz-adv-x="1024" />

    
    <glyph glyph-name="arrow" unicode="&#58881;" d="M943.128 384.528L90.664-126.936V896l852.464-511.472z"  horiz-adv-x="1024" />

    
    <glyph glyph-name="searchfor" unicode="&#58884;" d="M979.88-88a44.032 44.032 0 0 0-31.192 12.928L617.624 255.992a44.144 44.144 0 0 0-8.064 51.392l5.488 10.608c0.792 1.576 1.72 3.144 2.72 4.584 32.52 47.896 49.696 103.944 49.696 162.048 0 159.336-129.624 288.952-288.952 288.952-159.296 0-288.92-129.624-288.92-288.952 0-159.296 129.624-288.912 288.92-288.912a44.096 44.096 0 0 0 44.12-44.12 44.088 44.088 0 0 0-44.12-44.112C170.552 107.48 1.36 276.664 1.36 484.624c0 207.968 169.184 377.184 377.152 377.184 208 0 377.176-169.224 377.176-377.184 0-67.408-17.752-132.752-51.552-190.384l306.936-306.936a44.096 44.096 0 0 0 0-62.376 43.976 43.976 0 0 0-31.192-12.928z"  horiz-adv-x="1024" />

    
    <glyph glyph-name="Projectcooperation" unicode="&#58885;" d="M512.536 896C243.32 896 25.08 682.424 25.08 418.968c0-241.288 183.016-440.704 420.6-472.608-2.168-13.608-5.704-36.592-7.648-53.344l-0.128-1.096c-0.016-0.296-0.04-0.6-0.04-0.904a12.8 12.8 0 0 1 15.544-12.512c1.264 0.504 2.592 1.056 3.984 1.624 39.784 16.2 130.52 54.368 195.952 81.976C853.92 21.208 1000 203.392 1000 418.968 1000 682.424 781.76 896 512.536 896z m108.016-893.984l-130.784-57.416a0.896 0.896 0 0 0-0.424-0.168l-0.432-0.192-0.008 0.016a0.952 0.952 0 0 0-0.744 0.728v45.744c-227.696 15.696-407.44 201.408-407.44 428.24 0 237.112 189.512 429.336 431.816 429.336 242.296 0 438.712-192.224 438.712-429.336 0-201.728-139.096-370.896-330.696-416.952zM691.568 284.8a17.6 17.6 0 0 1-16.248-10.832c-22.792-35.48-85.872-67.656-162.304-67.656-76.24 0-139.832 32.344-163.472 69.536l-0.112-0.056a17.6 17.6 0 1 1-26.904-21.84c29.904-43.472 102.528-77.504 189-77.504 86.96 0 162.576 34.472 192.408 78.24a17.6 17.6 0 0 1-12.368 30.112z"  horiz-adv-x="1024" />

    
    <glyph glyph-name="TermsofService-U" unicode="&#58886;" d="M1024 32c0-88.368-71.632-160-160-160H160c-88.368 0-160 71.632-160 160V736C0 824.368 71.632 896 160 896h704c88.368 0 160-71.632 160-160v-704z"  horiz-adv-x="1024" />

    
    <glyph glyph-name="TermsofService-S" unicode="&#58887;" d="M864 896H160C71.632 896 0 824.368 0 736v-704c0-88.368 71.632-160 160-160h704c88.368 0 160 71.632 160 160V736c0 88.368-71.632 160-160 160z m35.584-307.04l-466.912-460a35.12 35.12 0 0 0-49.112-0.152l-259.032 252a35.12 35.12 0 0 0 48.984 50.344l234.392-228 442.44 435.872a35.12 35.12 0 0 0 49.656-0.408 35.096 35.096 0 0 0-0.416-49.656z"  horiz-adv-x="1024" />

    
    <glyph glyph-name="Copy-form" unicode="&#58970;" d="M852.736 104.704a30.106 30.106 0 0 1-8.858-21.3v-89.753c0-33.28-26.931-60.211-60.211-60.211h-662.58c-33.279 0-60.261 26.982-60.261 60.211V776.755c0 33.28 26.982 60.21 60.262 60.21H378.88v-287.333l72.294 67.481 75.264-67.481V836.352h256.614c33.28 0 60.263-26.932 60.263-60.212v-271.052a30.106 30.106 0 1 1 60.21 0V775.526c0 66.56-53.913 120.473-120.473 120.473H120.474A120.474 120.474 0 0 1 0 775.526v-783.052C0-74.086 53.914-128 120.474-128h662.578c66.56 0 120.474 53.914 120.474 120.474v90.93a30.106 30.106 0 0 1-29.491 30.157 30.106 30.106 0 0 1-21.3-8.857zM678.45 449.69a22.477 22.477 0 0 1-9.062 17.407 35.43 35.43 0 0 1-21.913 7.27H151.45c-17.101 0-30.976-11.058-30.976-24.678s13.875-24.678 30.976-24.678h496.025c17.1 0 30.976 11.06 30.976 24.678z m-527-172.75c-17.101 0-30.976-11.059-30.976-24.678s13.875-24.678 30.976-24.678h248.012c17.101 0 30.976 11.059 30.976 24.678s-13.824 24.679-30.976 24.679H151.45z m859.903 192c-13.312 8.397-32.768 6.656-43.366-3.942l-138.24-138.752-93.645 67.175a36.966 36.966 0 0 1-23.552 6.4 33.434 33.434 0 0 1-21.709-9.882L530.893 218.675a20.634 20.634 0 0 1-3.687-24.474c4.352-8.14 13.824-13.772 24.78-14.848a34.97 34.97 0 0 1 28.52 9.728l139.468 148.07 93.03-67.122a36.198 36.198 0 0 1 23.552-6.452 33.792 33.792 0 0 1 21.71 9.421l158.72 160.41a21.35 21.35 0 0 1 6.757 18.688 24.32 24.32 0 0 1-12.39 16.845z"  horiz-adv-x="1024" />

    
    <glyph glyph-name="waining" unicode="&#58915;" d="M511.992 889.992c279.472 0 505.992-226.52 505.992-505.984 0-279.472-226.52-505.992-505.984-505.992C232.528-121.984 6.016 104.528 6.016 384 6.016 663.464 232.528 889.992 511.992 889.992zM428.144 160.16c0-45.472 36.848-82.232 82.28-82.232 45.464 0 85.44 36.768 85.44 82.232 0 45.392-39.976 82.248-85.44 82.248-45.44 0-82.28-36.864-82.28-82.248z m159.664 227.576V619.832a74.952 74.952 0 0 1-75.024 75.032c-41.408 0-76.584-33.52-76.584-75.032v-232.096c0-41.424 35.184-75.016 76.584-75.016a75 75 0 0 1 75.024 75.016z"  horiz-adv-x="1024" />

    
    <glyph glyph-name="round-Unselected" unicode="&#58889;" d="M512 896C229.24 896 0 666.776 0 384c0-282.784 229.24-512 512-512 282.768 0 512 229.216 512 512 0 282.776-229.232 512-512 512z m0-962.664c-248.888 0-450.664 201.76-450.664 450.664C61.336 632.896 263.112 834.664 512 834.664c248.896 0 450.664-201.768 450.664-450.664 0-248.904-201.768-450.664-450.664-450.664z"  horiz-adv-x="1024" />

    
    <glyph glyph-name="round-Selected" unicode="&#58890;" d="M512 896c282.768 0 512-229.232 512-512 0-282.768-229.232-512-512-512-282.768 0-512 229.232-512 512C0 666.768 229.232 896 512 896z m309.264-400.944l-67.872 92.448-335.448-246.288-123.056 166.112-92.16-68.28 191.56-258.544 92.152 68.264-0.224 0.304 335.048 245.984z"  horiz-adv-x="1024" />

    
    <glyph glyph-name="List-switching" unicode="&#58986;" d="M354.744 706.744h595.664a46.136 46.136 0 1 1 0 92.28H354.744a46.136 46.136 0 0 1 0-92.28z m-0.008-367.992h593.48a46.144 46.144 0 1 1 0 92.28H354.736a46.144 46.144 0 1 1 0-92.28z m595.68-277.744H354.744a46.136 46.136 0 0 1 0-92.28h595.664a46.128 46.128 0 0 1 46.144 46.128 46.136 46.136 0 0 1-46.136 46.152zM27.448 752.88c0-50.968 41.312-92.28 92.28-92.28s92.28 41.312 92.28 92.28S170.696 845.16 119.728 845.16 27.448 803.84 27.448 752.88z m0-367.44c0-50.96 41.312-92.272 92.28-92.272S212.008 334.48 212.008 385.44c0 50.968-41.312 92.288-92.28 92.288S27.448 436.408 27.448 385.44z m0-370.32c0-50.952 41.312-92.272 92.28-92.272s92.28 41.32 92.28 92.272c0 50.968-41.312 92.288-92.28 92.288S27.448 66.088 27.448 15.12z"  horiz-adv-x="1024" />

    
    <glyph glyph-name="The-arrow" unicode="&#58927;" d="M248.488-120.992L468.12 384 248.488 888.992 824.512 384l-576.024-504.992z"  horiz-adv-x="1025" />

    
    <glyph glyph-name="paasCDfuji" unicode="&#59007;" d="M915.44 357.784l-386.968-377.128c-12.72-13.504-33.304-13.504-45.976 0-12.712 13.504-12.712 35.392 0 48.896l363.616 354.432-363.616 354.408c-12.712 13.512-12.712 35.44 0 48.952 12.672 13.504 33.256 13.504 45.976 0l386.968-377.176c6.752-7.176 9.6-16.72 9.168-26.176 0.432-9.432-2.424-18.992-9.168-26.208zM563.808 357.784l-386.976-377.128c-12.712-13.504-33.304-13.504-45.976 0-12.72 13.504-12.72 35.392 0 48.896L494.48 383.984 130.856 738.392c-12.72 13.512-12.72 35.44 0 48.952 12.672 13.504 33.256 13.504 45.976 0l386.976-377.176c6.768-7.176 9.624-16.72 9.168-26.176 0.456-9.432-2.408-18.992-9.168-26.208z"  horiz-adv-x="1024" />

    
    <glyph glyph-name="Contact-cooperation" unicode="&#58944;" d="M512 0.014a594.466 594.466 0 0 0-95.683 8.082L192.02-128V98.645C74.984 180.565 0 306.558 0 448.171 0 695.405 229.376 896 512 896s512-200.595 512-447.83-229.267-448.156-512-448.156z m0 831.98c-247.398 0-447.83-171.978-447.83-383.987 0-130.09 75.695-244.941 191.147-314.355l-2.075-148.439 150.678 90.55a502.443 502.443 0 0 1 109.227-11.797c246.197 0 446.792 171.977 446.792 383.986S759.344 831.94 512.109 831.94z m256.027-447.83a64.007 64.007 0 1 0 63.953 64.007A64.007 64.007 0 0 0 768.027 384z m-256.027 0a64.007 64.007 0 1 0 64.007 64.007A64.007 64.007 0 0 0 512 384z m-256.027 0a64.007 64.007 0 1 0 64.007 64.007A64.007 64.007 0 0 0 256.027 384z"  horiz-adv-x="1024" />

    
    <glyph glyph-name="QR-code" unicode="&#58945;" d="M160 736h128v-128H160V736zM96 832a32 32 0 0 1-32-32v-256a32 32 0 0 1 32-32h256a32 32 0 0 1 32 32V800a32 32 0 0 1-32 32H96z m0 64h256a96 96 0 0 0 96-96v-256a96 96 0 0 0-96-96H96a96 96 0 0 0-96 96V800A96 96 0 0 0 96 896z m0-640a32 32 0 0 1-32-32v-256a32 32 0 0 1 32-32h256a32 32 0 0 1 32 32V224a32 32 0 0 1-32 32H96z m0 64h256a96 96 0 0 0 96-96v-256a96 96 0 0 0-96-96H96a96 96 0 0 0-96 96V224a96 96 0 0 0 96 96zM672 832a32 32 0 0 1-32-32v-256a32 32 0 0 1 32-32h256a32 32 0 0 1 32 32V800a32 32 0 0 1-32 32H672z m0 64h256a96 96 0 0 0 96-96v-256a96 96 0 0 0-96-96H672a96 96 0 0 0-96 96V800a96 96 0 0 0 96 96z m-32-963.456a32 32 0 0 0-64 0V224a96 96 0 0 0 96 96h288.64a32 32 0 1 0 0-64H672a32 32 0 0 1-32-32v-291.456zM768 160h64v-256h-64V160zM928 160h64v-256h-64V160z"  horiz-adv-x="1024" />

    
    <glyph glyph-name="Back-top" unicode="&#58946;" d="M725.902 397.084c18.205 251.45-93.298 410.738-205.369 475.592l-6.257 3.982-6.258-3.414c-111.502-64.853-224.711-224.142-204.8-475.59-55.751-53.476-80.214-116.623-80.214-204.8v-15.36l179.2 35.27c11.378-40.39 58.596-69.973 113.21-69.973 54.613 0 101.262 29.582 112.64 68.836l180.337-36.41v15.36c-0.569 89.885-25.031 153.6-82.489 206.507zM571.733 503.467c-33.564-31.29-87.04-28.445-118.329 5.12s-28.444 87.04 5.12 117.76c33.565 31.289 87.04 28.444 118.33-5.12s28.444-86.471-5.12-117.76z m-56.32-368.64c-35.84 0-64.284-29.014-64.284-64.285 0-35.84 54.044-182.613 64.284-182.613s64.285 146.773 64.285 182.613c0 35.271-29.014 64.285-64.285 64.285z"  horiz-adv-x="1024" />

    
    <glyph glyph-name="qq" unicode="&#59012;" d="M691.272318-127.948801c-64.843179 0-124.924877 16.665183-163.528712 45.003675-12.697283-0.614385-23.909802-0.614385-36.453488 0.051198-38.603835-28.364091-98.711132-45.054874-163.554311-45.054873-122.262543 0-211.015525 54.219445-211.015525 128.995175 0 36.351091 21.529062 68.964676 60.184095 92.260093-0.588785 0.947176-1.177571 1.791955-1.766355 2.662334-22.604235-16.38359-47.742806-21.042674-70.756632-13.337267-68.887878 23.141821-72.650984 142.306842-41.214969 242.630734 16.81878 53.681858 47.870803 95.690408 73.751756 123.593711a137.442964 137.442964 0 0 0-0.38399 10.674933c0 29.106472 7.577411 57.368166 22.604235 84.196295v1.254368C159.138422 738.538337 316.420889 896 509.772856 896c193.300767 0 350.583235-157.461663 350.583235-350.992825v-0.40959c15.334017-27.058524 23.116222-55.60181 23.116222-85.066673 0-3.839904-0.179196-7.679808-0.486388-11.519712 25.59936-27.724107 56.241794-69.451064 72.983776-122.672133 31.461613-100.375091 27.672908-219.514512-41.240569-242.707533-23.039424-7.731007-47.9988-3.046324-70.551836 13.183671a222.560836 222.560836 0 0 1-1.791956-2.636734c38.450239-23.346616 59.928102-55.883403 59.928102-92.132097 0-74.775731-88.778581-128.995175-211.041124-128.995175z m-155.234519 96.842379c6.169446 0 12.185295-2.252744 16.869978-6.271844 28.364091-24.242594 81.380365-39.346216 138.338942-39.346216 87.908202 0 159.381615 34.917527 159.381615 77.770856 0 22.78343-20.684283 44.312492-56.77938 59.236919a25.752956 25.752956 0 0 0-15.052424 17.151571 25.548161 25.548161 0 0 0 4.710282 22.297043 325.111872 325.111872 0 0 1 32.050399 48.79238c4.044699 7.500612 11.59651 12.518087 20.146696 13.414065a25.548161 25.548161 0 0 0 22.501838-9.010975c10.111747-11.954901 26.290543-26.39294 40.0118-21.836254 26.39294 8.882978 36.043899 90.724132 8.422189 178.990725-15.564411 49.61156-46.258044 87.831404-69.19507 111.126822a25.343366 25.343366 0 0 0-7.014225 22.066648c0.947176 5.657459 1.382365 10.956526 1.382366 16.204395 0 22.322642-6.553436 44.235694-19.532312 65.124772a25.727357 25.727357 0 0 0-3.763106 15.078023c0.127997 1.740756 0.230394 3.455914 0.230394 5.247869 0 165.269468-134.115047 299.742906-298.949326 299.742906-164.80868 0-298.923727-134.499038-298.923727-299.742906 0-1.971151 0.076798-3.967901 0.230394-5.862254a25.496963 25.496963 0 0 0-3.737506-15.026824c-12.722882-20.735482-19.19952-42.41814-19.19952-64.510387 0-5.017475 0.435189-10.188545 1.331167-15.61561a25.394565 25.394565 0 0 0-7.091023-21.913052c-23.244219-23.449014-54.245044-61.899253-69.886253-111.869203-27.647309-88.317792-17.970751-170.133347 8.473388-178.990726 13.951651-4.81268 29.951251 9.98375 40.114197 21.964251a25.880953 25.880953 0 0 0 42.648534-4.40309c9.087773-16.997975 19.865103-33.432764 32.075998-48.843578a25.522562 25.522562 0 0 0-10.470138-39.499813c-36.197495-14.822029-56.984175-36.479088-56.984175-59.288118 0-42.853329 71.473413-77.770856 159.356016-77.770856 56.984175 0 110.00045 15.103622 138.415739 39.346217a24.933777 24.933777 0 0 0 18.841129 6.169446c17.330767-1.305567 31.308017-1.356766 49.150771 0 0.614385 0.025599 1.254369 0.076798 1.894353 0.076798z m0 0"  horiz-adv-x="1024" />

    
    <glyph glyph-name="Telephone" unicode="&#59013;" d="M748.288 213.1968c-48.6656 38.2976-102.2976 60.288-147.0208 60.288-32.0512 0-58.1376-11.6736-73.6768-32.9472l-0.7168-0.9216-1.024-0.6144c-2.944-2.0224-10.7264-6.528-18.1248-6.528-3.1232 0-8.0128 0.7168-13.44 6.9376l-1.3312 1.5872a911.7696 911.7696 0 0 0-123.3152 215.8336c-1.9712 11.264-1.2544 19.8912 2.176 23.9872a13.696 13.696 0 0 0 8.6528 4.3264c23.0912 0.6144 44.1344 11.1616 60.7744 30.4896 32.4864 37.7856 46.208 104.8064 36.736 179.2-14.464 113.6384-75.7504 199.296-142.5664 199.296h-1.8944a130.4832 130.4832 0 0 1-10.2144-0.9472c-3.6352 0.1024-7.2704 0.2048-10.9056 0.2048-37.7856 0-72.32-8.7296-102.6048-26.0864-50.2784-28.7488-86.5024-79.232-104.704-146.176-36.8384-135.424 0.3072-320.9216 99.4816-496.2304 118.528-209.7152 299.2896-350.4896 449.7664-350.4896 37.5808 0 72.0128 8.8576 102.2976 26.1888 28.928 16.512 54.9376 42.8288 79.1808 79.9744l6.2464 11.2384c32.6912 59.8016-6.7328 152.9088-93.7728 221.3888z m57.0624-196.736a167.808 167.808 0 0 0-5.4272-9.7024c-16.4608-28.2624-40.2432-52.8896-65.5616-67.3536-23.424-13.3376-50.3808-20.1984-80.0256-20.1984-132.6848 0-301.5936 134.7072-410.6752 327.68-91.648 162.1504-127.6416 339.968-93.824 464.0512 14.8992 54.7072 43.2896 95.3344 82.2016 117.5296 23.5264 13.3632 50.4832 20.1984 80.128 20.1984 3.968 0 7.808-0.2048 12.9024-0.5376 1.4592 0 2.8928 0.2304 4.2752 0.4352 1.792 0.4096 3.456 0.6144 5.4272 0.7168 41.7024 0 87.808-74.8288 98.7392-160.1536 7.6032-60.1856-2.7136-116.8128-26.3168-144.384-12.3904-14.4128-23.5008-14.72-27.3664-14.8224-1.0496 0-26.1376-0.3328-42.88-21.0432-12.5952-15.5648-16.2304-37.0432-10.7008-63.6672a23.6288 23.6288 0 0 1 1.152-3.8912 951.8592 951.8592 0 0 1 55.2448-114.7904 924.0576 924.0576 0 0 1 77.0304-115.456 19.6608 19.6608 0 0 1 3.6352-3.7632c12.4928-12.6208 27.8784-19.3536 44.6464-19.3536 27.1616 0 48.2816 17.664 50.56 19.6864a21.4784 21.4784 0 0 1 4.2496 5.0176c6.656 10.624 19.9936 16.3072 38.6304 16.3072 34.3552 0 78.8992-18.9184 119.1424-50.688 71.0656-55.8848 101.6832-130.1504 84.8128-161.8176z m-174.848 492.9536a49.664 49.664 0 0 0 32.0512-20.736c7.6288-10.9568 10.4192-24.2944 8.0128-37.4528a22.784 22.784 0 0 1 22.3744-26.7264 22.912 22.912 0 0 1 22.4768 18.6368 94.4128 94.4128 0 0 1-15.3088 71.2448 94.8736 94.8736 0 0 1-61.2864 39.552 22.784 22.784 0 0 1-23.0144-35.0464 22.7584 22.7584 0 0 1 14.6944-9.472z m37.0688 91.7504a125.6192 125.6192 0 0 0 81.9968-53.3504 126.1568 126.1568 0 0 0 20.0704-94.4896 22.016 22.016 0 0 1 3.5328-16.8448 22.6816 22.6816 0 0 1 18.8416-9.8816 22.6048 22.6048 0 0 1 22.272 18.6368 171.3152 171.3152 0 0 1-27.264 128.1536 171.0592 171.0592 0 0 1-111.2576 72.3968 22.7328 22.7328 0 0 1-8.192-44.6208z m211.968 37.1712a299.0848 299.0848 0 0 1-193.3568 125.0048 22.7328 22.7328 0 0 1-22.912-34.9696 22.9376 22.9376 0 0 1 14.6688-9.5744 253.7728 253.7728 0 0 0 164.1216-106.1632 254.336 254.336 0 0 0 41.0112-191.3088 21.9392 21.9392 0 0 1 3.5584-16.8192 22.784 22.784 0 0 1 18.816-9.9328 22.656 22.656 0 0 1 22.3744 18.6368 298.5728 298.5728 0 0 1-48.2816 225.1264z"  horiz-adv-x="1024" />

    
    <glyph glyph-name="Feedbackfeedback" unicode="&#59014;" d="M357.6064 655.4368h312.3968c15.4624 0 28.032 12.6976 28.032 28.3392s-12.544 28.3392-28.032 28.3392H357.6064c-15.488 0-28.032-12.672-28.032-28.3392s12.544-28.3392 28.032-28.3392z m228.2752-54.5024a28.16 28.16 0 0 1-28.032 28.3392h-200.2432c-15.488 0-28.032-12.672-28.032-28.3392s12.544-28.3392 28.032-28.3392h200.2432a28.16 28.16 0 0 1 28.032 28.3392z m431.6672 16.4352l0.5632 0.2816h-0.5888c-5.2736 44.8-42.9568 79.2576-88.4736 78.4128h-81.9712V767.616c0 50.4064-40.3968 91.264-90.2656 91.264l-1.5616 0.4096H259.7376c-24.0128 0-47.0272-9.6768-64-26.88a91.776 91.776 0 0 1-26.2912-64.7936v-71.5776H87.8848c-23.3216 0-45.6704-9.3696-62.1568-26.0352a89.0112 89.0112 0 0 1-24.7552-52.864L0 617.6256v-591.8976a84.9664 84.9664 0 0 1 86.8096-78.3616c0.384 0 0.7168-0.1024 1.0752-0.1024h842.752c0.64 0 1.2544 0.1792 1.8944 0.2048a83.6608 83.6608 0 0 1 61.4656 27.3664 81.664 81.664 0 0 1 6.8352 8.3456 86.784 86.784 0 0 1 6.912 11.1616 88.2688 88.2688 0 0 1 10.8032 41.8304V609.1776c-0.0512 2.816-0.6656 5.4528-0.9984 8.192zM223.5392 767.616c0 9.2416 3.6608 18.1504 10.1376 24.7296 6.4768 6.5536 15.2576 10.24 24.448 10.24h497.1008l1.5616-0.4096a34.816 34.816 0 0 0 34.6368-34.9952v-257.8432l-279.9616-133.7088-19.9424-8.1408-2.7904 1.2288-265.1904 135.0656V767.616z m-169.856-160.4608c0 18.0224 14.4128 32.5888 32.2048 32.5888h83.5584v-108.416l-115.7632 58.9568v16.8704z m907.1872-572.9536c0-10.0864-4.7872-18.7136-11.8528-24.704a44.9024 44.9024 0 0 0-21.5808-5.4784H90.2656c-14.5408 0-26.1888 6.2976-31.4624 13.5936-0.2048 0.384-0.512 0.6912-0.7168 1.0752a13.6704 13.6704 0 0 0-2.4064 7.04v492.544l408.3968-201.088a55.168 55.168 0 0 1 56.4736 0l440.32 202.5728v-485.5552z m0 556.1088l-113.792-54.3488V639.744h81.6128c17.792 0 32.2048-14.5664 32.2048-32.5888v-16.8448z"  horiz-adv-x="1024" />

    
    <glyph glyph-name="Worklistsupport" unicode="&#59015;" d="M936.96 811.1872H87.04C41.4208 811.1872 4.3008 773.6576 4.3008 727.552v-695.1424C4.3008-13.696 41.4208-51.2 87.04-51.2h849.92c45.6192 0 82.7392 37.504 82.7392 83.6352V727.5776c0 46.1056-37.12 83.6096-82.7392 83.6096z m31.8208-778.752a32 32 0 0 0-31.8208-32.1536H87.04a32 32 0 0 0-31.8208 32.1536v457.472h913.5616v-457.472z m0 508.928H55.2192V727.5776A32 32 0 0 0 87.04 759.7056h849.92a32 32 0 0 0 31.8208-32.128v-186.2144zM174.4384 685.4912c-19.5072 0-35.328-16-35.328-35.712 0-12.7488 6.7328-24.5248 17.664-30.9248 10.9312-6.3744 24.3968-6.3744 35.3024 0a35.84 35.84 0 0 1 17.664 30.9248 35.4816 35.4816 0 0 1-35.3024 35.712z m109.7472 0c-19.5072 0-35.3024-16-35.3024-35.712s15.8208-35.712 35.3024-35.712c19.5072 0 35.3024 16 35.3024 35.712s-15.7952 35.712-35.3024 35.712z m109.7472 0c-19.5072 0-35.328-16-35.328-35.712s15.8208-35.712 35.328-35.712c19.5072 0 35.3024 16 35.3024 35.712a35.4816 35.4816 0 0 1-35.3024 35.712z m74.6496-538.88a25.4976 25.4976 0 0 1 32.7424 15.2064l65.024 177.536a25.7792 25.7792 0 0 1-15.0272 33.0752 25.344 25.344 0 0 1-32.7168-15.2064l-65.0496-177.536a25.7536 25.7536 0 0 1 15.0272-33.0752z m242.688 110.9248l-46.1824-40.1408a25.984 25.984 0 0 1-2.688-36.3008 25.3952 25.3952 0 0 1 35.9424-2.7392l68.0192 59.2128 0.0512 0.0768a14.0544 14.0544 0 0 1 1.664 1.6128l0.3328 0.3072 0.2304 0.2816 0.5376 0.64a24.6784 24.6784 0 0 1 0.9472 1.2032l0.6144 0.8448c0.256 0.4352 0.5376 0.7936 0.768 1.2288 0.2304 0.3584 0.384 0.6912 0.5632 1.024 0.2304 0.4096 0.4608 0.768 0.5888 1.2032l0.5376 1.1776a10.9312 10.9312 0 0 1 0.4608 1.1008l0.4352 1.28c0.1024 0.384 0.2304 0.7168 0.2816 1.0752a12.928 12.928 0 0 1 0.3072 1.3568l0.2304 1.1008 0.1792 1.28 0.0768 1.2032 0.0256 1.2288v1.28l-0.0512 1.152-0.1536 1.3312-0.1792 1.0752a26.1888 26.1888 0 0 1-0.256 1.3824l-0.3072 1.0752c-0.1024 0.4352-0.256 0.8704-0.384 1.28a32.0512 32.0512 0 0 0-0.4096 1.152c-0.1536 0.4096-0.3328 0.768-0.5376 1.1776l-0.5632 1.2288-0.5376 0.9984c-0.2304 0.4352-0.512 0.8192-0.7424 1.28a17.3568 17.3568 0 0 0-0.5888 0.8704l-0.9216 1.2032c-0.2048 0.2304-0.3584 0.4864-0.512 0.6912l-0.2048 0.1536c-0.2816 0.3584-0.5888 0.6656-0.896 0.9728l-0.9728 0.9472-0.1792 0.2048-70.1696 64.0768c-10.4192 9.5232-26.5216 8.704-35.9424-1.8432s-8.576-26.8544 1.8176-36.352l48.768-44.5952z m-462.3104-3.2a11.5968 11.5968 0 0 1 0.1536-1.28l0.2048-1.1008a8.6272 8.6272 0 0 1 0.3072-1.3568l0.3072-1.0752 0.4096-1.28c0.128-0.4096 0.2816-0.7424 0.4352-1.1008l0.512-1.1776 0.6144-1.2032 0.5632-1.024 0.7936-1.2288 0.6144-0.8448a11.392 11.392 0 0 1 0.9728-1.2288l0.512-0.64 0.256-0.256 0.3072-0.3328c0.5376-0.5376 1.0752-1.1264 1.664-1.5872l0.0512-0.1024 68.0448-59.2128a25.216 25.216 0 0 1 35.8912 2.7136 25.984 25.984 0 0 1-2.6624 36.3264l-46.1568 40.1408 48.7424 44.5184c10.4192 9.4976 11.264 25.8048 1.8176 36.352a25.2928 25.2928 0 0 1-35.968 1.8432l-70.144-64.0768-0.1792-0.2048-0.9728-0.9472c-0.3072-0.3072-0.6144-0.6144-0.896-0.9728l-0.2048-0.1536c-0.1792-0.2304-0.3072-0.4864-0.4864-0.6912-0.3328-0.4096-0.64-0.768-0.9472-1.2032l-0.5632-0.8704c-0.256-0.4608-0.5376-0.8448-0.768-1.28l-0.5376-0.9984a51.456 51.456 0 0 1-1.0752-2.4064l-0.4096-1.152-0.384-1.28-0.3072-1.0752a39.552 39.552 0 0 1-0.4352-2.4576l-0.128-1.3312-0.0768-1.152a19.6864 19.6864 0 0 1 0.0256-2.5088l0.1024-1.1008z"  horiz-adv-x="1024" />

    
    <glyph glyph-name="Company-address" unicode="&#58947;" d="M512 276.648c-118.312 0-214.704 96.4-214.704 214.696 0 118.32 96.392 214.712 214.704 214.712 118.312 0 214.704-96.392 214.704-214.712 0-118.296-96.392-214.696-214.704-214.696z m0 359.296a142.12 142.12 0 0 1-142.408-142.4A142.136 142.136 0 0 1 512 351.128a142.128 142.128 0 0 1 142.408 142.416c0 76.672-63.536 142.4-142.408 142.4z m0-753.656c-8.76 0-17.528 4.376-24.096 10.952-15.336 13.16-15.336 37.248-2.184 50.392 96.392 100.792 348.336 398.744 348.336 547.712 0 177.472-144.592 322.072-322.048 322.072-177.464 0-322.056-144.6-322.056-322.072 0-85.44 81.064-230.032 227.848-411.864 13.152-15.352 10.952-37.248-4.376-50.4-15.336-13.136-37.248-10.96-50.392 4.392-164.32 199.36-245.376 354.912-245.376 457.872C117.648 708.248 295.104 885.712 512 885.712c216.888 0 394.36-177.464 394.36-394.368 0-210.312-352.736-582.76-368.08-598.104-8.768-6.576-17.512-10.952-26.28-10.952z m0 0"  horiz-adv-x="1024" />

    
    <glyph glyph-name="API-generate" unicode="&#58948;" d="M121.296 546.92V777.408c0 58.448 47.552 106.064 105.872 106.064h590.768l212-217.312v-437.112h-52.992V613.096H844.48c-43.088-0.816-78.656 33.448-79.48 76.52a89.8 89.8 0 0 0 0 2.936V830.408H227.232a53.128 53.128 0 0 1-53-52.936v-230.488H1081.6c29.192 0 53.008-23.872 53.008-53.064v-370.864c0-29.128-23.816-52.936-53.008-52.936H174.232v-79.464c0-29.128 23.808-53 53-53h696.776c29.12 0 52.936 23.808 52.936 53v293.04h52.992v-293.168c0-58.328-47.616-106-105.928-106H227.232c-58.504 0.112-105.896 47.504-106 106v79.464H70.392a53.136 53.136 0 0 0-53 53V493.92c0 29.184 23.816 53 53 53h50.904z m233.776-99.856l-120.88-316.472h55.344l28.816 79.336h132.52l28.816-79.336h55.408L414.16 447.064h-59.088z m-21.208-194.576l50.016 138.736h1.832l49.648-138.736H333.736h0.128z m232.256 194.576v-316.472h51.792V252.04h78.512c77.064 0 115.632 32.808 115.632 97.96 0 64.712-38.504 97.064-114.808 97.064H566.056h0.064z m51.784-44.32h75.36c22.608 0 39.456-3.992 50.152-12.416 10.64-7.976 16.336-21.272 16.336-40.328 0-19.064-5.32-32.808-15.96-41.224-10.632-7.976-27.48-12.416-50.456-12.416h-75.36V402.744h-0.072z m238.48 44.32v-316.472h51.912V447.064h-51.912z m-38.376 362.12v-116.504c0-13.304 10.576-26.592 26.472-26.592h111.312l-137.784 143.096z"  horiz-adv-x="1152" />

    
    <glyph glyph-name="code-test" unicode="&#58949;" d="M710.12864 878.08H313.87136C150.41536 878.08 16.68096 744.3456 16.68096 580.8896v-66.87232c0-14.85824 9.9072-24.76544 24.76544-24.76544 14.85824 0 24.76544 9.9072 24.76544 24.76544V580.8896c0 136.21248 111.44704 247.65952 247.65952 247.65952h396.25728c136.21248 0 247.65952-111.44704 247.65952-247.65952v-396.25728c0-136.21248-111.45216-247.65952-247.65952-247.65952H313.87136c-136.21248 0-247.65952 111.44704-247.65952 247.65952v123.83232h160.97792c9.9072 0 17.33632 4.95104 22.29248 14.85824l37.1456 79.25248 116.39808-274.89792c4.95616-9.91232 12.38016-14.85824 22.29248-14.85824 9.9072 0 19.8144 7.42912 22.29248 17.33632L588.77952 543.744l66.86208-217.93792c2.47808-9.9072 12.3904-17.33632 24.77056-17.33632h222.88896c14.85824 0 24.77056 9.9072 24.77056 24.76544s-9.91232 24.76544-24.77056 24.76544h-203.07968L616.02304 630.4256c-2.47808 9.9072-12.3904 17.33632-22.29248 17.33632-9.91232 0-19.80928-7.42912-22.29248-17.33632L422.84032 209.408l-113.92 267.47392c-4.95104 9.9072-12.38016 14.85824-22.29248 14.85824-9.9072 0-19.8144-4.95616-22.28736-14.85824l-52.00896-116.4032H19.15904v-173.35808c0-165.92896 133.7344-297.1904 297.1904-297.1904h393.7792c165.92896 0 297.1904 133.7344 297.1904 297.1904v393.7792c0 163.44576-133.73952 297.18016-297.1904 297.18016z"  horiz-adv-x="1024" />

    
    <glyph glyph-name="Grou-chat" unicode="&#58950;" d="M639.52 328.544a227.432 227.432 0 0 1 100 188.304c0 125.448-102.056 227.504-227.496 227.504-125.448 0-227.512-102.056-227.512-227.504a227.48 227.48 0 0 1 100-188.304 324.704 324.704 0 0 1-196.56-298.064h65.168c0 142.696 116.136 258.864 258.864 258.864 142.736 0 258.888-116.12 258.888-258.864h65.168A324.68 324.68 0 0 1 639.52 328.544zM349.648 516.848c0 89.504 72.808 162.328 162.312 162.328S674.32 606.352 674.32 516.848 601.504 354.528 512 354.528s-162.312 72.808-162.312 162.32h-0.04zM270.512 353.56c-67.064 0.088-121.408 54.424-121.496 121.488 0 57.472 40.784 107.528 96.976 119.024l-13.072 63.856c-100.96-20.744-166-119.392-145.264-220.36a186.64 186.64 0 0 1 68.672-110.104C68.344 284.904 7.504 194.696 7.504 90.576h65.168c0 109.072 88.76 197.816 197.832 197.816l0.008 65.168z m597.152-26.088c81.528 63.064 96.512 180.296 33.456 261.832a186.592 186.592 0 0 1-110.048 68.632L778 594.08c56.168-11.496 96.976-61.552 96.976-119.016-0.08-67.056-54.416-121.4-121.472-121.504v-65.168c109.08 0 197.824-88.76 197.824-197.808h65.168c-0.016 104.112-60.832 194.32-148.832 236.888z"  horiz-adv-x="1024" />

    
    <glyph glyph-name="email" unicode="&#58951;" d="M979.8 566.872a35.384 35.384 0 0 1-35.384-35.384v-319.56c0-88.92-72.344-161.264-161.28-161.264H240.832c-88.928 0-161.256 72.344-161.256 161.264V556.064c0 88.928 72.328 161.28 161.256 161.28h542.304c37.864 0 74.664-13.376 103.576-37.648 0.096-0.072 0.192-0.192 0.288-0.264L506.608 404.976 230.224 605.2a35.44 35.44 0 0 1-49.424-7.904 35.392 35.392 0 0 1 7.904-49.416l297.104-215.224c6.176-4.488 13.464-6.72 20.752-6.72 7.264 0 14.52 2.232 20.712 6.672l434.008 313.168a35.392 35.392 0 0 1 7.992 49.4 34.8 34.8 0 0 1-9.792 9.144c-1.272 2.264-2.152 4.672-3.928 6.672-8.256 9.16-15.648 16.416-23.312 22.888a232.248 232.248 0 0 1-149.112 54.224H240.832c-127.928 0-232.016-104.096-232.016-232.04v-344.136c0-127.944 104.096-232.04 232.016-232.04h542.304c127.944 0 232.056 104.096 232.056 232.04V531.488a35.4 35.4 0 0 1-35.392 35.384z m0 0"  horiz-adv-x="1024" />

    
    <glyph glyph-name="Code-trusteeship" unicode="&#58952;" d="M439.088 42.728c5.48-1.64 10.184-2.408 14.336-2.408 8.208 0 13.784 3.272 17.944 9.96l0.216 0.328 132.144 444.312 0.2 0.32c3.064 5.368 3.936 11.6 2.296 17.512a22.664 22.664 0 0 1-10.936 13.992c-9.736 5.576-28.872-6.776-31.064-8.2l-0.872-0.656-132.024-443.544-0.216-0.336c-3.712-6.448-4.488-15.304-1.856-21.984 1.416-3.28 4.256-7.656 9.832-9.296z m260.88 104.344c0-6.216 2.424-12.016 6.904-16.392a23.864 23.864 0 0 1 16.736-6.792c6.144 0 12.248 2.296 16.952 6.984l158.512 129.296c4.248 4.256 6.56 10.504 6.216 17.504 0.344 6.8-1.952 13.024-6.656 17.616L740.784 424.152c-9.184 9.08-24.832 9.184-33.92 0.328a22.72 22.72 0 0 1-6.888-16.408c0-6.24 2.424-12.024 7.112-16.624l139.576-113.872-140.216-114.4c-4.184-4.056-6.48-9.968-6.48-16.104z m-416.744-15.96a24.464 24.464 0 0 1 17.28-7.216c6.016 0 11.928 2.296 16.632 6.896 4.488 4.376 6.888 10.168 6.888 16.4s-2.512 12.032-7.112 16.632L177.344 277.56l140.128 114.416c4.152 4.16 6.552 9.96 6.552 16.08 0 6.232-2.512 12.024-7 16.408-4.48 4.368-10.384 6.784-16.728 6.784s-12.256-2.416-16.52-6.56L124.944 294.968c-4.264-4.248-6.568-10.488-6.248-17.504-0.328-6.784 1.976-13.016 6.672-17.616l157.856-128.736zM883.424 876.224H140.584c-66.616 0-120.872-54.152-120.872-120.856v-742.832c0-66.6 54.152-120.76 120.872-120.76h742.832c66.624 0 120.856 54.16 120.856 120.76V755.48c-0.104 66.608-54.224 120.744-120.848 120.744zM74.944 634.6h874.104v-621.624c0-36.424-29.2-66.064-64.984-66.064H139.936c-35.888 0-64.992 29.64-64.992 66.064V634.6z m64.992 186.4h744.016c35.888 0 64.984-26.904 64.984-59.84v-71.2H74.944v71.2c0 32.928 29.224 59.84 64.992 59.84z"  horiz-adv-x="1024" />

    
    <glyph glyph-name="Mobile-phone" unicode="&#58953;" d="M511.992 80.376c-27.6 0-50.04-22.992-50.04-51.168 0-28.272 22.44-51.168 50.04-51.168 27.608 0 50.048 23 50.048 51.168 0 28.176-22.44 51.168-50.048 51.168z m0 0M759.52 886.56H264.472c-41.624 0-75.512-34.672-75.512-77.312v-850.504c0-42.64 33.888-77.304 75.512-77.304H759.52c41.616 0 75.512 34.664 75.512 77.304V809.248c0.008 42.64-33.888 77.312-75.512 77.312zM264.472 834.944H759.52c13.912 0 25.136-11.552 25.136-25.8v-637.208H239.232V809.248c0 14.144 11.336 25.696 25.24 25.696zM759.52-66.952H264.472c-13.904 0-25.136 11.56-25.136 25.824V116.056h545.424v-157.312c-0.104-14.136-11.32-25.696-25.24-25.696z m0 0"  horiz-adv-x="1024" />

    
    <glyph glyph-name="Password" unicode="&#58954;" d="M793.344 510.92H762.08V632.056C762.08 777.696 658.296 891.744 510.848 891.744 362.808 891.744 261.92 775.256 261.92 632.056v-121.144h-31.272c-68.944 0-125.032-56.928-125.032-126.952v-380.784c0-70.016 56.088-126.936 125.032-126.936h562.688c68.952 0 125.032 56.92 125.032 126.936V383.968c0.008 70.024-56.072 126.952-125.024 126.952zM324.424 632.056c0 108.152 72.84 196.216 186.424 196.216 112.384 0 188.696-86.184 188.696-196.216v-121.144h-375.12V632.056z m531.432-628.872c0-35-28.048-63.472-62.512-63.472H230.656c-34.464 0-62.528 28.472-62.528 63.472V383.968c0 35.016 28.064 63.48 62.528 63.48h562.688c34.472 0 62.512-28.464 62.512-63.48v-380.784z m-343.864 317.36c-34.504 0-62.504-28.464-62.504-63.52a63.608 63.608 0 0 1 31.264-54.96v-103.712c0-17.504 13.984-31.688 31.24-31.688 17.296 0 31.264 14.176 31.264 31.688V202.064a63.632 63.632 0 0 1 31.28 54.96c-0.008 35.064-28.024 63.52-62.544 63.52z m0 0"  horiz-adv-x="1024" />

    
    <glyph glyph-name="Project-Icon" unicode="&#58956;" d="M117.656 747.392c0 45.52 37.032 82.56 82.56 82.56h720.832a27.04 27.04 0 0 1 0 54.056H200.216C124.88 884.008 63.6 822.72 63.6 747.392v-730.8c0-75.304 61.28-136.592 136.616-136.592h747.84V664.824h-747.84c-45.536 0-82.56 37.04-82.56 82.568z m776.376-813.344H200.216c-45.528 0-82.56 37.04-82.56 82.544V638.616a135.904 135.904 0 0 1 82.56-27.84h693.792v-676.72h0.024v-0.008zM932.248 773.456H217.4a27.04 27.04 0 0 1 0-54.048h714.848a27.032 27.032 0 0 1 0 54.048zM369.128 208.664c4.232-4.12 7.896-15.416 6.904-21.224l-19.832-115.624c-2.376-13.84 0.544-26.48 8.224-35.584 6.936-8.224 16.856-12.76 27.968-12.76 7.304 0 14.792 1.984 22.208 5.88l103.856 54.6c1.944 1.016 6.136 2.048 11.16 2.048s9.216-1.016 11.16-2.048l103.832-54.6c7.448-3.896 14.912-5.88 22.216-5.88 11.104 0 21.048 4.528 27.976 12.76 7.68 9.104 10.592 21.744 8.232 35.584L683.2 187.432c-0.984 5.824 2.68 17.12 6.904 21.232l84.016 81.888c12.68 12.36 17.272 27.688 12.6 42.064-4.664 14.36-17.4 24.072-34.912 26.616l-116.104 16.856c-5.84 0.848-15.456 7.84-18.056 13.128l-51.92 105.216c-7.84 15.88-20.992 24.984-36.112 24.984-15.104 0-28.272-9.112-36.112-24.984l-51.92-105.208c-2.616-5.272-12.224-12.264-18.056-13.12l-116.104-16.864c-17.528-2.552-30.24-12.256-34.92-26.616-4.672-14.376-0.072-29.696 12.608-42.064l84.016-81.896z m62.184 113.944c23.528 3.424 48.24 21.376 58.76 42.688l39.552 80.152 39.56-80.152c10.52-21.312 35.224-39.28 58.744-42.688l88.456-12.856-64.008-62.376c-17.016-16.592-26.456-45.64-22.432-69.064l15.088-88.104-79.104 41.592c-10.12 5.312-23.016 8.24-36.304 8.24s-26.192-2.928-36.304-8.24l-79.112-41.592 15.112 88.104c4.032 23.424-5.416 52.472-22.432 69.064l-64 62.376 88.424 12.856z"  horiz-adv-x="1024" />

    
    <glyph glyph-name="Telephon-support" unicode="&#58957;" d="M785.984 217.784c-13.904 10.432-34.752 10.432-45.184-3.48l-79.952-76.488c-10.432-10.424-27.816-13.888-41.704-6.936-76.488 41.704-146 93.84-205.096 152.944-59.096 59.096-111.24 128.616-152.952 205.088-6.944 13.896-3.472 31.288 6.952 41.712l79.952 79.944c13.912 13.912 13.912 31.296 3.48 45.192L240.24 791.336s0 3.48-3.472 3.48c-13.904 13.904-34.768 13.904-48.672 0L94.248 700.96c-45.192-45.184 69.528-260.696 271.136-465.792 201.608-205.104 420.6-316.328 465.8-271.136l97.328 97.32c10.424 13.904 10.424 38.24-6.952 48.672l-135.576 107.76z m-93.848 48.672c38.224 38.224 97.32 41.712 139.048 6.944l135.56-107.768c45.192-34.752 52.136-100.8 17.376-146-3.464-3.464-3.464-6.944-6.936-6.944l-93.856-93.848c-90.384-90.384-333.704 38.24-566.6 271.144C83.816 422.872-41.328 662.72 45.576 753.096L139.432 846.952c41.712 41.712 107.752 41.712 145.992 0l6.952-6.952 107.76-135.568c34.768-41.72 31.288-100.816-6.952-139.04l-59.096-59.104c38.24-62.568 79.96-118.192 128.624-166.848 48.664-48.664 104.28-90.376 166.848-128.616l62.576 55.632zM570.464 735.712c-20.84 0-34.76 13.912-34.76 34.768s13.912 34.752 34.76 34.752c191.192 0 347.624-156.424 347.624-347.608 0-20.856-13.912-34.76-34.768-34.76s-34.768 13.904-34.768 34.76c0 152.952-125.136 278.088-278.088 278.088z m0-139.04c-20.84 0-34.76 13.904-34.76 34.76 0 20.856 13.912 34.76 34.76 34.76 114.728 0 208.568-93.848 208.568-208.56 0-20.856-13.896-34.76-34.752-34.76-20.864 0-34.768 13.904-34.768 34.76 0 76.464-62.568 139.04-139.048 139.04z m0 0"  horiz-adv-x="1024" />

    
    <glyph glyph-name="process-design" unicode="&#58958;" d="M514.39104-115.52256c-116.864 0-226.2272 45.0304-308.78208 125.97248-10.72128 10.1888-10.72128 27.34592-0.5376 38.0672 10.1888 10.71616 27.3408 10.71616 38.06208 0.53248 72.3712-71.30112 168.86272-110.96576 271.25248-110.96576 95.41632 0 187.62752 35.3792 258.9184 99.1744 11.25888 9.64608 27.87328 9.1136 38.06208-2.1504 9.65632-11.25376 9.10848-27.87328-2.14528-38.05696-81.47456-72.3712-186.0096-112.57344-294.83008-112.57344z m404.73088 330.21952c-2.14528 0-3.75296 0-5.89312 0.5376-14.47424 3.21024-23.58784 17.68448-20.37248 32.16384 5.35552 24.12032 8.0384 49.84832 8.0384 77.18912 0 171.008-114.18624 323.7888-278.2208 371.49696-14.47424 4.28544-22.51264 19.3024-18.23232 33.23392 4.29056 13.94176 19.30752 22.51776 33.23904 18.23232 89.5232-26.27072 170.4704-82.0224 227.29728-156.53888 58.42432-77.19424 89.51808-169.3952 89.51808-266.42432 0-31.08864-3.21536-61.11232-9.10848-88.9856-2.67776-12.32896-13.93664-20.90496-26.2656-20.90496z m-809.46688-1.07008c-12.32896 0-23.58272 9.10848-26.2656 21.43744-5.89824 31.09888-9.1136 60.58496-9.1136 89.52832 0 194.59072 124.36992 363.45856 309.85216 420.8128 13.93664 4.29056 28.94848-3.75296 33.77152-17.6896 4.28544-13.93664-3.75296-28.94336-17.6896-33.77152-162.9696-50.39104-272.32256-198.34368-272.32256-369.35168 0-25.19552 2.68288-51.46624 8.04352-78.80704a27.19744 27.19744 0 0 0-20.90496-31.62624c-2.15552-0.53248-3.7632-0.53248-5.37088-0.53248zM511.17568 592.09216c-80.41472 0-145.81248 65.39776-145.81248 145.80736C365.3632 818.31424 430.76096 883.712 511.17568 883.712c80.4096 0 145.80736-65.39776 145.80736-145.81248-0.00512-80.4096-65.39776-145.80736-145.80736-145.80736z m0 238.01344c-50.93376 0-92.20608-41.28256-92.20608-92.20608s41.27744-92.20096 92.20608-92.20096c50.92352 0 92.20096 41.27744 92.20096 92.20096 0 50.92864-41.27744 92.20608-92.20096 92.20608z m366.6688-851.8144a144.7424 144.7424 0 0 0-100.2496 40.20736c-29.48608 27.8784-45.56288 65.39776-45.56288 105.61024 0 80.4096 65.40288 145.80736 145.81248 145.80736s145.81248-65.39264 145.81248-145.80736c0-80.41984-65.40288-145.8176-145.81248-145.8176z m0 238.00832c-50.92864 0-92.2112-41.27232-92.2112-92.19584 0-25.73824 10.1888-49.32608 28.9536-67.01568 17.15712-16.08192 39.66976-25.19552 63.25248-25.19552 50.92352 0 92.20096 41.28256 92.20096 92.2112 0.00512 50.92864-41.27232 92.19584-92.19584 92.19584zM150.93248-21.7088C70.51776-21.7088 5.12 43.68896 5.12 124.10368c0 80.4096 65.39776 145.80736 145.81248 145.80736 80.4096 0 145.80736-65.39264 145.80736-145.80736 0.00512-80.41472-65.39264-145.81248-145.80736-145.81248z m0 238.00832c-50.92864 0-92.20608-41.27232-92.20608-92.19584 0-50.92864 41.28256-92.2112 92.20608-92.2112s92.20096 41.28256 92.20096 92.2112c0 50.92864-41.27744 92.19584-92.20096 92.19584z m357.56032-32.16384c-82.0224 0-149.02784 67.01056-149.02784 149.03296 0 82.01728 67.01056 149.02272 149.02784 149.02272 82.0224 0 149.02784-67.00544 149.02784-149.02272 0-82.0224-67.00544-149.03296-149.02784-149.03296z m0 244.4544c-52.53632 0-95.42144-42.88512-95.42144-95.42144 0-52.54144 42.88-95.42656 95.42144-95.42656s95.41632 42.88512 95.41632 95.42656c0 52.53632-42.88 95.42144-95.41632 95.42144z"  horiz-adv-x="1030" />

    
    <glyph glyph-name="Verification-Code" unicode="&#58959;" d="M542.352 885.696a99.216 99.216 0 0 1-60.824 0l-361.4-119.2c-30.704-10.104-51.296-39.008-51.296-71.888v-261.664c0-151.184 71.296-294.872 190.856-384.528L468-107.784a72.368 72.368 0 0 1 43.936-14.688 73.2 73.2 0 0 1 43.936 14.688l208.424 156.2c119.56 89.56 190.856 233.344 190.856 384.528V694.608c-0.112 32.904-20.704 61.784-51.408 71.888l-361.392 119.2z m349.536-454.448c0-130.496-61.576-254.568-164.672-331.856l-201.04-150.664a24.08 24.08 0 0 0-28.552 0L296.672 99.392c-103.184 77.288-164.68 201.368-164.68 331.856V683.592c0 10.616 6.672 20.008 16.576 23.2L497.24 821.784a46.512 46.512 0 0 0 29.424 0l348.56-114.992c9.896-3.192 16.584-12.592 16.584-23.2l0.08-252.344zM290.392 605.912c-13.632 0-24.616-11.192-24.616-25.096 0-13.88 10.984-37.088 24.616-37.088H481.44v-362.44c0-13.904 16.872-25.096 30.504-25.096 13.64 0 31.48 11.184 31.48 25.096V543.728h190.088c13.64 0 24.608 23.208 24.608 37.088 0 13.904-10.968 25.096-24.608 25.096h-443.12z m0 0"  horiz-adv-x="1024" />

    
    <glyph glyph-name="Fast-modeling" unicode="&#58955;" d="M512 875.616C240.32 875.616 20.384 655.688 20.384 384S240.32-107.616 512-107.616c271.68 0 491.616 219.928 491.616 491.616S783.68 875.616 512 875.616z m0-931.48C268.784-55.864 72.128 140.784 72.128 384S268.784 823.872 512 823.872c243.224 0 439.864-196.656 439.864-439.872S755.224-55.864 512-55.864z m0 0M742.28 448.688c-5.168 7.768-12.928 12.936-23.28 12.936H599.976l67.272 199.232c2.584 7.768 0 15.52-2.584 23.288-7.76 5.168-15.52 10.344-23.288 10.344H439.552c-20.696 0-25.872-7.76-28.464-18.112-2.584-10.344-129.368-362.232-129.368-362.232-2.592-7.768-2.592-15.528 2.584-23.296 5.176-7.76 12.944-10.344 20.704-10.344h126.784l-23.288-230.288c0-10.344 5.168-23.288 15.52-25.872 10.352-5.168 23.296 0 31.048 7.768l284.624 388.12c5.176 7.752 7.768 18.104 2.584 28.456z m-271.68-310.496l15.528 165.592c0 7.76-2.584 15.52-7.76 20.704-2.584 5.168-10.344 7.768-18.112 7.768H341.232l111.256 310.496h152.664L537.888 443.52c-2.6-7.768-2.6-15.528 2.576-23.288 5.176-7.768 12.936-10.352 20.704-10.352h103.504L470.6 138.192z m0 0"  horiz-adv-x="1024" />

    
    <glyph glyph-name="Mobile" unicode="&#58960;" d="M45.584 194.72a29.376 29.376 0 0 0-26.776 41.408L158.2 546.08a29.368 29.368 0 0 0 53.568 0l139.384-309.952a29.368 29.368 0 0 0-14.752-38.832 29.44 29.44 0 0 0-38.824 14.744L184.984 462.448 72.376 212.04a29.344 29.344 0 0 0-26.792-17.32z m0 0M270.904 296.016H103.976a29.376 29.376 0 0 0 0 58.744h166.928a29.384 29.384 0 0 0 0-58.744z m162.008-106.16a29.384 29.384 0 0 0-29.36 29.368V537.176a29.384 29.384 0 0 0 29.36 29.368h110.312c64.32 0 116.664-52.328 116.664-116.648 0-64.312-52.344-116.656-116.656-116.656H462.28v-114.016a29.376 29.376 0 0 0-29.368-29.368z m29.368 202.12h80.944c31.952 0 57.928 25.984 57.928 57.92s-25.976 57.912-57.92 57.912H462.28v-115.832z m317.704-202.12a29.384 29.384 0 0 0-29.368 29.368V537.176a29.384 29.384 0 0 0 29.368 29.368h110.312c64.312 0 116.648-52.328 116.648-116.648 0-64.312-52.336-116.656-116.648-116.656h-80.944v-114.016a29.384 29.384 0 0 0-29.368-29.368z m29.368 202.12h80.944c31.944 0 57.912 25.984 57.912 57.92a57.968 57.968 0 0 1-57.912 57.912h-80.944v-115.832z m21.808 223.704a29.4 29.4 0 0 0-29.384 29.376v104.88c0 34.592-28.16 62.752-62.752 62.752H277.096c-34.592 0-62.736-28.16-62.736-62.752v-104.88a29.4 29.4 0 0 0-29.376-29.376 29.392 29.392 0 0 0-29.368 29.376v104.88c0 66.984 54.504 121.488 121.48 121.488h461.928c66.992 0 121.488-54.504 121.488-121.488v-104.88a29.4 29.4 0 0 0-29.352-29.376z m-92.136-718.448H277.096c-66.976 0-121.48 54.496-121.48 121.496V117.624a29.384 29.384 0 0 0 29.368 29.368 29.392 29.392 0 0 0 29.376-29.368v-98.896c0-34.616 28.144-62.768 62.736-62.768h461.928c34.592 0 62.752 28.152 62.752 62.768V117.624a29.384 29.384 0 0 0 29.384 29.368 29.384 29.384 0 0 0 29.352-29.368v-98.896c-0.008-67-54.496-121.496-121.488-121.496z m0 0"  horiz-adv-x="1024" />

    
    <glyph glyph-name="Multi-event-triggeri" unicode="&#58961;" d="M49.144 415.312c0.152 2.28 0.32 4.376 0.488 6.648C69.048 660.768 272.072 847.904 511.992 847.904c245.28 0 446.52-191.344 462.872-432.592h32.376C991.056 674.368 775.248 880.296 511.992 880.296c-256.592 0-473.864-200.104-494.576-455.576-0.336-3.08-0.504-6.168-0.656-9.232h32.384v-0.176z m923.776-83.368c-25.896-231.36-222.776-411.864-460.928-411.864S77.144 96.552 51.08 331.944H18.536c26.392-253.528 237.496-444.24 493.456-444.24 256.128 0 467.4 194.912 493.464 444.24h-32.536z m0 0M511.992 744.144c-198.632 0-360.208-161.576-360.208-360.224 0-198.64 161.576-360.216 360.208-360.216 198.664 0 360.232 161.576 360.232 360.216-0.16 198.64-161.728 360.224-360.232 360.224z m0-659.576c-165.288 0-299.344 134.048-299.344 299.344 0 165.304 134.056 299.352 299.344 299.352 165.304 0 299.352-134.048 299.352-299.352 0-165.296-134.048-299.344-299.352-299.344z m0 0M511.992 176.84c-114.128 0-207.064 92.936-207.064 207.072 0 114.152 92.936 207.064 207.064 207.064 114.144 0 207.072-92.912 207.072-207.064 0-114.128-92.928-207.072-207.072-207.072z m0 338.864c-72.672 0-131.776-59.096-131.776-131.792s59.104-131.776 131.776-131.776c72.696 0 131.792 59.08 131.792 131.776s-59.256 131.792-131.792 131.792z m0 0"  horiz-adv-x="1024" />

    
    <glyph glyph-name="computer" unicode="&#58962;" d="M944.016 828.976H79.992a68.816 68.816 0 0 1-68.808-68.8v-584.952c0-38 30.816-68.8 68.808-68.8h405.168v-119.864H295.016c-13.144 0-23.776-10.632-23.776-23.776s10.632-23.768 23.776-23.768h427.832a23.76 23.76 0 1 1 0 47.544H532.696V106.432h411.32a68.8 68.8 0 0 1 68.8 68.8V760.176a68.8 68.8 0 0 1-68.8 68.8zM79.992 781.448h864.024a21.296 21.296 0 0 0 21.264-21.272v-461.824H58.72V760.176a21.296 21.296 0 0 0 21.272 21.272z m864.024-627.504H79.992a21.296 21.296 0 0 0-21.272 21.28v75.584h906.56v-75.584a21.304 21.304 0 0 0-21.264-21.28z m0 0"  horiz-adv-x="1024" />

    
    <glyph glyph-name="dynamic-hiding" unicode="&#58963;" d="M612.64 841.488c0.576 0.016 1.16-0.024 1.728-0.128 1.072-5.768 0.848-20.448-8.368-45.168l-79.76-216.48c-20.656-55.976-68.512-96.568-113.784-96.568a69.16 69.16 0 0 0-24.432 4.304c-50.64 18.712-76.544 74.904-57.904 125.568 23.112 62.64 111.136 151.28 188.296 189.6L570.16 828.32c24.088 11.872 37.68 13.144 42.488 13.144v0.024z m94.864-269.696c11.464 0 22.696-2.032 33.416-5.984 62.616-23.128 151.28-111.152 189.592-188.328l25.704-51.72c11.784-23.672 13.48-38.216 13.16-44.128a38.256 38.256 0 0 0-5.984-0.424c-7.184 0-19.712 1.512-39.296 8.688l-216.496 79.76c-68.296 25.16-110.592 88.432-92.28 138.216 14.144 38.216 51.184 63.92 92.184 63.92zM60.544 486.784c7.176 0 19.688-1.488 39.288-8.672l216.488-79.768c34.776-12.84 64.432-36.296 81.464-64.344 15.192-25.16 19.064-51.392 10.816-73.856a98.4 98.4 0 0 0-92.072-63.904 96.32 96.32 0 0 0-33.4 5.984c-62.64 23.008-151.288 111.136-189.6 188.32l-25.728 51.688c-11.76 23.672-13.48 38.24-13.136 44.12 1.272 0.216 3.2 0.432 5.88 0.432z m550.936-201.8c8.448 0 16.704-1.408 24.392-4.28 50.664-18.72 76.576-74.92 57.936-125.608-23.032-62.608-111.144-151.264-188.328-189.704l-51.696-25.688c-23.888-11.856-37.584-13.168-42.408-13.168-0.648 0-1.272 0-1.704 0.112-1.072 5.784-0.856 20.456 8.344 45.184l79.76 216.472c20.44 55.992 68.416 96.68 113.704 96.68z m1.16 602.176c-17.016 0-38.216-5.776-62.728-17.872l-51.72-25.704C409.44 799.488 314.584 702.816 287.288 628.832c-27.304-74.2 10.912-157.04 85.008-184.36 12.856-4.712 26.456-7.112 40.16-7.072 63.472 0 128.576 49.992 156.712 126.544l79.768 216.488C673.76 847.664 657.288 887.176 612.64 887.176v-0.016z m94.864-269.664c-58.44 0-113.688-35.968-135-93.904-27.304-74.088 26.44-162.744 119.376-196.872l216.488-79.768c21.288-7.816 39.704-11.56 55.112-11.56 51.728 0 67.776 42.168 33.84 110.592l-25.72 51.712c-44.088 88.744-140.768 183.6-214.728 210.904a141.008 141.008 0 0 1-49.368 8.896zM60.544 532.608c-51.816 0-67.76-42.192-33.832-110.6l25.704-51.696c44.088-88.768 140.768-183.608 214.752-210.904a141.488 141.488 0 0 1 49.24-8.8c58.464 0 113.704 35.968 135.016 93.888 27.296 74.096-26.432 162.744-119.376 196.896L115.68 521.024c-21.304 7.824-39.832 11.568-55.136 11.568v0.016z m550.936-201.92c-63.496 0-128.584-49.984-156.744-126.544l-79.76-216.472c-24.72-67.232-8.232-106.84 36.4-106.84 17.032 0 38.216 5.768 62.744 17.872l51.704 25.704c88.768 44.112 183.6 140.784 210.896 214.752 27.304 74.096-11.024 156.952-85.112 184.248a113.328 113.328 0 0 1-40.128 7.28z m0 0"  horiz-adv-x="1024" />

    
    <glyph glyph-name="formula-calculation" unicode="&#58964;" d="M769.944 230.096c22.624-0.112 45.264-0.392 67.872 0.144 8.952 0.2 14.112-3.72 17.776-11.08 7.984-16.032 16.008-32.08 24.04-48.096 0.832-1.704 1.872-3.296 3.68-6.424 6.392 6.832 12.128 12.904 17.824 19 10.856 11.656 21.712 23.296 32.52 35 1.864 2.016 3.184 4.736 5.376 6.248 3.08 2.144 6.672 4.816 10.12 4.92 15.608 0.544 31.24 0.296 46.848 0.2 5.856-0.032 8.4-2.504 8.488-8.936 0.208-15.248 0.224-30.488-0.024-45.72-0.08-4.8-2.312-8.08-8.144-7.968a750.296 750.296 0 0 1-38.424-0.08c-3.056-0.08-6.848-1.344-8.904-3.456-13.24-13.512-26.336-27.2-38.824-41.408-1.928-2.168-1.896-7.92-0.456-10.92 9.632-20.032 19.848-39.8 30.024-59.576 2.144-4.168 5.768-6.144 10.72-6.096 5.72 0.08 11.472-0.408 17.184-0.816 4.216-0.312 5.616-3.296 5.632-6.984 0.072-16.048 0.112-32.096-0.016-48.128-0.048-4.296-1.936-6.752-7.008-6.672-16.624 0.28-33.232-0.096-49.848 0.312-2.784 0.064-6.896 2-8.064 4.264-13.832 27-27.232 54.2-40.728 81.376-0.256 0.504-0.296 1.128-0.776 3.032-4.64-4.656-8.976-8.624-12.88-12.984-8.328-9.296-16.456-18.752-24.632-28.184-12.56-14.504-24.952-29.168-37.8-43.44-2.072-2.296-6.04-4-9.176-4.08-15.816-0.408-31.64 0.128-47.448-0.344-6.544-0.184-8.832 3.312-8.944 8.424a1244.344 1244.344 0 0 0-0.064 45.72c0.08 5.312 4.184 8.528 10.112 8.56 12.208 0.064 24.44 0.096 36.648 0 6.048-0.064 11.272 1.544 15.296 6.296 11.112 13.144 22.2 26.264 33.344 39.376 5.128 6.032 10.064 12.264 15.616 17.888 4.28 4.312 3.984 9.144 2.096 13.64-5.032 11.952-10.632 23.656-16.16 35.376-2.888 6.144-7.872 9.048-14.72 9-14.216-0.08-28.44-0.096-42.656 0.048-2.552 0.032-2.552 0.032-7.912 0.296-5.464-0.28-5.464-0.28-8.472-0.296-22.216-0.128-44.448-0.064-67.288-0.064-3.344-13.032-6.752-26-10.008-39.032-12.288-49.216-24.768-98.376-36.664-147.688-4.288-17.752-8.336-35.528-16.456-51.952-11.104-22.504-28.512-36.144-54.48-36.904-9.944-0.296-19.864-1.144-29.8-1.144-140.368-0.064-280.736-0.232-421.104 0.128-23.176 0.064-43.48 9.456-60.832 24.984-17.248 15.456-27.496 34.768-31.568 57.392a103.64 103.64 0 0 0-1.488 18.36c-0.048 259.92-0.072 519.832 0.016 779.744 0.008 27.592 0.784 55.192 1.136 82.792 0.168 12.888 15.888 24.568 28.208 21.256 14.68-3.952 21.064-11.696 21.064-26.88 0-285.984 0.072-571.968-0.112-857.952-0.016-24.36 19.464-48.112 44.496-49.328 6.728-0.328 13.456-1.128 20.176-1.128 114.736-0.08 229.472-0.112 344.208 0 20.744 0.016 41.52 0.232 62.232 1.376 9.208 0.512 15.84 7.112 21.632 14.168 11.144 13.608 13.816 30.456 17.944 46.72 11.952 47.08 23.776 94.184 35.6 141.28 1.944 7.704 3.72 15.456 5.728 23.832h-49.496c-7.416 0-14.816 0.048-22.232-0.016-5.392-0.048-8.032 2.472-8.024 7.92 0.04 15.048-0.016 30.096 0.024 45.128 0.024 7.144 2.456 9.512 9.744 9.528 28.432 0.016 56.856 0 85.784 0 4.616 18.592 9.272 37.128 13.8 55.688 5.64 23.064 16.024 43.656 33.368 59.968 20.488 19.248 44.336 31.752 72.616 36.2 25.152 3.976 49.48 0.408 73.904-4.312 8.048-1.56 16.032-3.544 23.976-5.64 12.28-3.2 19.224-11.016 20.752-22.872 1.296-10.112-4.784-21.456-14.416-24.936-5.248-1.888-11.688-2.688-17.104-1.56-21.224 4.424-42.2 9.952-64.24 8.608-18.52-1.128-34.36-8.016-48.56-19.936-14.04-11.768-21.352-26.72-24.84-44.36-2.44-12.28-6.192-24.296-9.464-36.84h28.464M567.944 536.08c10.76 10.296 21.536 20.68 32.408 30.968 20.68 19.576 41.408 39.128 62.152 58.632 10.744 10.072 21.64 19.968 32.352 30.048 15.224 14.336 30.36 28.8 45.568 43.168 1.2 1.152 2.664 2.032 5.384 4.064-13.088 0-24.584-0.392-36.048 0.088-16.48 0.672-26.08 11.08-25.928 26.144 0.136 12.736 11.592 23.464 23.472 23.248 26.008-0.472 52.048-0.368 78.064-0.08 21.736 0.24 41.448-17.92 44.944-38.776 0.76-4.48 1.16-9.016 1.184-13.56 0.12-23.456 0.064-46.92 0.048-70.376-0.008-14.728-10.184-23.496-25.912-24.376-11.016-0.624-24.064 11.464-23.472 24.592 0.568 12.008 0.12 24.056 0.104 36.088 0 0.368-0.168 0.744-0.384 1.632-5.288-4.656-10.528-9-15.48-13.672-10.728-10.152-21.216-20.536-31.944-30.696-20.096-19.032-40.272-37.984-60.44-56.952-12.616-11.872-25.192-23.768-37.904-35.528-13.848-12.824-27.096-26.44-41.944-37.984-16.32-12.688-42.744-10.208-57.968 3.704-12.64 11.552-25.008 23.376-37.496 35.096-19.592 18.4-39.16 36.84-58.784 55.2-2.144 2-4.648 3.608-7.192 5.552-6.832-6.248-13.792-12.424-20.568-18.792-9.152-8.608-18.136-17.384-27.248-26.04a17224.04 17224.04 0 0 0-44.688-42.352c-12.592-11.88-25.36-23.592-37.872-35.568a8733.04 8733.04 0 0 1-64.408-62.16c-8.384-8.2-17.984-10.96-29.168-7.872-18.496 5.12-21.24 29.568-10.856 39.984 13.4 13.44 27.168 26.496 40.76 39.736 3.928 3.832 7.72 7.816 11.664 11.632 9.888 9.576 19.76 19.168 29.776 28.616 18.392 17.336 36.88 34.576 55.336 51.848 11.48 10.728 22.912 21.52 34.528 32.12 10.832 9.888 21.328 20.272 32.928 29.168 19.096 14.616 50.792 11.864 68.328-5.992 14.656-14.92 30.216-28.936 45.448-43.296a5682.904 5682.904 0 0 1 37.904-35.528c4.352-4.056 8.912-7.84 13.352-11.728zM389.408 224.016c0 45.72 0.112 91.44-0.064 137.144-0.048 12.488 9.04 21.312 18.296 22.816 17.088 2.784 27.272-6.168 29.76-17.672 0.784-3.624 1.224-7.408 1.224-11.128 0.064-88.216 0.08-176.44 0-264.64-0.016-11.168-3.792-20.736-15.064-25.048-16.088-6.144-34.2 3.456-34.176 21.408 0.072 45.712 0.024 91.416 0.024 137.12z m-147.784-61.752c0-24.832-0.272-49.656 0.128-74.504 0.184-11.576-11.384-24.328-24.6-24.168-13.936 0.144-24.96 12.704-24.896 23.984 0.264 49.264 0.2 98.544 0.056 147.816-0.04 12.832 9.736 25.872 26.712 25.016 10.144-0.512 23.056-10.952 22.752-24.832-0.536-24.416-0.152-48.856-0.152-73.312z m0 0"  horiz-adv-x="1024" />

    
    <glyph glyph-name="WeChat" unicode="&#58965;" d="M630.976 630.76c79.52 0 144.224-59.76 144.224-133.792a128.456 128.456 0 0 0-18.648-65.784c-18.104-29.648-47.128-51.552-82.2-61.976-7.456-2.384-15.2-3.696-23.032-3.832a27.416 27.416 0 1 0 0 54.832c2.064-0.048 4.128 0.328 6.04 1.104 23.568 6.576 42.208 20.288 52.608 38.392a69.592 69.592 0 0 1 10.432 37.272c0 43.312-40.032 78.912-88.824 78.912a99.216 99.216 0 0 1-48.272-12.584c-25.76-14.832-41.128-39.496-41.128-66.368v-229.752c0-46.592-25.76-89.456-68.536-113.496a150.744 150.744 0 0 0-75.12-19.752c-79.504 0-144.192 59.776-144.192 133.808 0.16 23.2 6.592 45.936 18.64 65.784 18.048 29.648 47.112 51.592 82.184 62 9.864 2.76 16.456 3.848 23.024 3.848a27.416 27.416 0 0 0 0-54.824 15.416 15.416 0 0 1-6.032-1.12c-23.568-7.112-42.208-20.832-52.616-38.376a69.76 69.76 0 0 1-10.416-37.28c0-43.328 40.024-78.92 89.448-78.92a98.864 98.864 0 0 1 48.248 12.608c25.776 14.808 41.128 39.488 41.128 66.352V496.968c0 46.616 25.784 89.448 68.536 113.504a142.416 142.416 0 0 0 74.568 20.288h-0.064zM73.328 384c0-242.36 196.312-438.672 438.672-438.672 242.352 0 438.664 196.32 438.664 438.672 0 242.344-196.312 438.688-438.664 438.688C269.64 822.688 73.328 626.384 73.328 384z m-54.824 0C18.504 656.512 239.496 877.496 512 877.496c272.512 0 493.496-220.968 493.496-493.496S784.52-109.496 512-109.496C239.496-109.496 18.504 111.488 18.504 384z m0 0"  horiz-adv-x="1024" />

    
    <glyph glyph-name="zd-programming" unicode="&#58967;" d="M1009.248 759.976c0 5.224-0.216 10.112-1.008 15.32-6.656 44.544-48.52 80.96-94.056 80.96-97.384 0.112-194.784 0.112-292.168 0.112-5.664 0-11.208-0.672-16.648-1.552-45.656-8.88-78.96-48.976-78.96-95.176v-199.992c0-4.664 0.216-9.432 1-14.208 6.208-45.976 49.08-82.832 95.048-82.392 48.432 0.44 96.616 0.104 144.832 0.104 47.968 0 96.04 0.12 144.136-0.104 15.992-0.224 31.096 3 44.968 10.544 33.088 18.104 52.2 45.648 52.64 83.392 0.784 67.728 0.216 135.256 0.216 202.992z m-67.184-187.12c-0.104-24.328-19.976-43.32-44.752-43.424-43.304-0.112-86.4 0-129.712 0-43.304 0-86.384-0.216-129.48 0.104-18.992 0.12-32.536 9.776-40.528 26.664-2.776 5.776-3.992 11.872-3.992 18.312 0 56.744-0.128 113.488 0 170.24a45.2 45.2 0 0 0 45.304 44.968c86.064 0.104 172.008 0.104 258.176 0 24.44-0.104 44.872-19.208 44.976-43.304 0.456-57.736 0.456-115.696 0.008-173.56zM497.768 204.28c0 6.784-0.112 13.672-1.336 20.552-7.656 46.08-50.184 80.504-94.608 80.184-48.528-0.456-96.832-0.128-145.352-0.128-49.32 0-98.72-0.104-148.248 0.128-5.448 0-10.784-0.56-15.992-1.784-45.32-9.888-77.52-49.304-77.624-95.176-0.112-66.4 0-132.584 0-198.872 0-26.432 9.44-49.2 28.088-68.08 17.664-17.864 39.096-28.976 64.528-29.096 99.376-0.448 198.776-0.552 298.152 0 26.432 0.12 48.864 11.992 66.632 31.208 18.328 19.648 26.096 42.968 25.872 69.624-0.224 63.752-0.008 127.712-0.112 191.44z m-66.96-178.104c0-20.104-8.224-35.432-27.2-43.992a48.616 48.616 0 0 0-19.104-3.984H128.208c-26.104 0-46.304 19.992-46.304 45.76 0 56.28-0.336 112.6 0.104 168.896 0.112 27.656 20.656 45.416 44.968 45.528 43.312 0.216 86.4 0.112 129.712 0.112 41.984 0 84.072 0 126.032-0.112 17.44 0.112 31.2-6.12 40.872-20.656 5.44-8.336 7.216-17.664 7.216-27.208 0.112-54.752 0.112-109.6 0-164.344zM41.696 537.328c33.864-33.544 67.736-66.968 101.504-100.496 3-3 4.112-1.448 6.208 0.552 33.32 32.976 66.632 65.848 99.824 98.832 1.008 0.992 2.68 1.664 2.68 3.992h-5.664c-18.872 0-37.768-0.112-56.744 0-12.88 0-19.776 6.776-19.776 19.552 0 7.328 0.336 14.76 1.008 22.208 2.88 26.648 9.536 52.408 20.656 76.96 13.872 30.976 33.752 57.632 59.072 80.384 22.088 19.776 46.752 35.432 74.512 46.096 22.424 8.656 45.416 14.328 69.4 16.208 2.44 0.224 5.336 0 5.336 4.216-0.12 15.552 0 31.32 0 46.976 0 2.336-0.456 3.216-3.336 3.112-12.216-0.776-24.208-2.008-36.104-4.336-55.736-10.76-104.816-34.752-146.904-72.728-42.64-38.432-71.392-85.288-87.28-139.928-7.44-24.984-10.768-50.528-10.88-76.624-0.112-15.656-6.784-22.208-22.664-22.208H45.92c-1.888 0-3.776 0.552-5.896-0.776 0.672-0.984 1.112-1.656 1.672-1.992z m943.688-306.496c-33.776 33.52-67.752 66.968-101.504 100.496-3 3.008-4.336 1.12-6.216-0.784L777.832 231.72c-0.896-0.88-2.776-1.544-2.224-3.776h60.856c14.104-0.208 20.992-7.328 21.096-21.312 0.224-21.664-3.672-42.768-9.44-63.648-13.984-50.072-42.088-91.272-82.728-123.912-26.648-21.44-56.632-36.656-90.064-45.096-13.664-3.32-27.312-6.544-41.424-7.552-2.44-0.32-6.552 0.68-6.552-4.328 0.12-15.544 0-31.32 0-46.96 0-2.456 0.784-3.896 3.344-3.12 5.544 1.448 11.432 1.112 17.208 1.672 33.968 3.544 65.952 13.656 96.384 28.528 41.304 20.216 76.168 48.304 104.392 84.392 39.968 51.304 61.4 109.384 63.072 174.128 0.664 23.104 4.544 27.44 27.872 27.44h47.2c0.432 1.544-0.672 1.992-1.44 2.656z m0 0"  horiz-adv-x="1024" />

    
    <glyph glyph-name="visualization1" unicode="&#58968;" d="M1011.192 884H133.8C67.808 882.368 14.688 829.256 13.064 763.256v-758.512c1.632-65.992 54.744-119.112 120.736-120.744h877.392c66 1.632 119.12 54.752 120.744 120.744V763.256c-1.624 66-54.744 119.112-120.744 120.744zM133.8 822.08h877.392a61.92 61.92 0 0 0 58.832-58.824v-133.128H74.984V763.256a61.904 61.904 0 0 0 58.816 58.824z m877.392-876.16H133.8a61.92 61.92 0 0 0-58.824 58.824V568.208h995.04v-563.472a61.904 61.904 0 0 0-58.824-58.816zM921.512 235.08H760.528L673.832 442.512a35.28 35.28 0 0 1-29.096 19.2 30.968 30.968 0 0 1-28.488-20.44L517.176 162.64 383.432 301.952a31.608 31.608 0 0 1-23.528 9.296 30.984 30.984 0 0 1-22.912-11.152L193.336 124.864a30.944 30.944 0 0 1 8.736-42.896 30.96 30.96 0 0 1 38.944 3.888l123.84 148.6 144.272-150.472a31.584 31.584 0 0 1 29.104-8.664 30.96 30.96 0 0 1 22.912 19.832l88.552 247.664 61.92-151.696a30.936 30.936 0 0 1 28.48-19.2h185.752a30.96 30.96 0 1 1 0 61.928l-4.336 1.232z"  horiz-adv-x="1145" />

    
    <glyph glyph-name="Menu-two-level" unicode="&#58966;" d="M255.792-19.944l404.248 404.256-405.216 403.28c-19.968 19.976-19.024 53.272 0.968 73.24 20.92 20.92 53.248 20.92 73.216 0.952l433.752-433.72 5.704-5.712c10.472-10.456 15.224-24.744 15.224-38.04 0-13.32-4.76-26.6-15.224-37.12-1.904-3.792-3.816-5.704-5.704-7.592l-433.752-433.76c-19.936-19.944-53.24-18.992-73.216 0.968-19.968 19.984-19.968 53.264 0 73.248z"  horiz-adv-x="1024" />

    
    <glyph glyph-name="buy" unicode="&#59051;" d="M0 870.375z m889.188-217.313c17.25 0 30.562-2.35 39.875-7 4.625-2.037 8.625-4.337 12-7 3.25-2.65 5.937-5.65 7.875-8.962 4.125-6.625 5.687-13.625 5.125-20.9 0-2.687-0.313-5.187-0.563-7.437-0.313-2.35-0.75-4.525-1-6.5-0.313-2-0.875-4.038-1.563-6l-11.875-32.938-18.937-54.775-21-58.837c-8.625-25.275-13.875-40.9-15.875-46.838-4.063-11.287-8.563-21.087-13.5-29.437-5-8.313-10.5-14.75-16.438-19.438-12-9.312-26.687-14-43.937-14h-474.5l14-79.463H803.5c29.188 0 43.75-12.25 43.75-36.875 0-12-2.938-22.25-8.875-30.875-5.375-8.625-16.688-13-33.938-13h-473.5c-4.037 0-7.837 0.375-11.437 1-3.688 0.625-7 1.5-10.025 2.5-2.962 1-5.813 2.5-8.5 4.5-7.938 5.25-14.588 12.25-19.9 20.875-2.65 4.125-5.15 8.375-7.437 13-2.35 4.625-4.5 9.625-6.5 15-3.313 12.625-5.65 22.25-7 28.875l-4.963 26-9.962 50.525-12.963 68.75-14.962 76.75-38.875 200.375h-67.826c-9.312 0-16.624 2.038-21.962 6-5.963 4.688-11.275 9.963-15.938 15.938-1.337 4.025-2.837 7.65-4.5 10.963-1.65 3.337-2.812 6.65-3.462 10-0.65 3.312-1.15 6.687-1.5 10-0.313 3.312-0.5 6.275-0.5 8.937 0 12 4 21.962 11.937 29.938a68.035 68.035 0 0 0 14.963 7.975c5.338 1.962 11.313 3 17.962 3H199.3c11.963 0 21.625-1.65 28.875-5 3.337-2 6.5-4 9.463-6 3-2 5.837-4.338 8.525-6.963 3.962-5.963 6.625-11.625 7.962-16.962l4.938-15.938c0.687-2.65 1.65-7.65 3-14.963v-4.962l4-25.938 4.962-33.937H889.15v0.037zM737.625 146.875c5.375 0 10.875-0.5 16.563-1.5 5.625-1 11.125-2.5 16.375-4.5 10.75-4 19.625-10 27-18 7.875-8 14.25-16.5 18.875-25.875 4-10 6.125-20.625 6.125-31.875 0-5.375-0.563-10.875-1.563-16.5s-2.563-10.875-4.563-15.5c-4.625-9.25-11-18.25-18.875-26.875-7.375-7.25-16.25-13-27-17-9.875-4.625-20.937-6.875-32.75-6.875-12.062 0-23.062 2.25-32.937 6.875-10.75 4.75-19.375 10.375-26 17-7.875 8.625-14 17.625-17.938 26.875-4.687 10-7.062 20.625-7.062 32 0 5.25 0.563 10.625 1.563 15.875 1 5.375 2.812 10.625 5.5 16 3.937 9.375 10.062 17.875 17.937 25.875 3.375 4.125 7.375 7.5 12 10.5 4.688 3 9.313 5.375 14 7.5 3.25 1.375 6.75 2.5 10.438 3.5 3.687 0.875 7.375 1.625 10.875 1.875 3.687 0.5 7.5 0.625 11.625 0.625h-0.188z m-375.75 2c11.275 0 22.25-2 32.9-6 9.963-4 18.938-10 26.9-18 3.975-3.875 7.5-8.125 10.462-12.375 2.938-4.375 5.438-8.875 7.463-13.5 4.65-10.625 7-21.375 7-32.5 0-10.875-2.35-21.375-7-31.25-4.025-9.375-10.025-18.375-18-27-7.9-7.25-17.088-13.125-27.4-17.375-10.25-4.375-21.063-6.5-32.338-6.5-12.025 0-22.962 2-32.937 6-9.938 4.625-18.9 10.625-26.9 17.875-7.963 8.625-13.963 17.625-17.962 27-4 10-6 20.375-6 31.375s2 21.75 6 32.375c1.962 4.75 4.5 9.125 7.462 13.5 2.962 4.25 6.5 8.5 10.438 12.5 2.687 2.625 5.65 4.875 8.962 7l8 6a91.043 91.043 0 0 0 9.937 4.875c2.688 0.75 5.375 1.5 8 2.5 2.65 1 5.338 1.75 7.963 2 2.687 0.375 5.5 0.625 8.462 1 3.05 0.375 5.9 0.5 8.588 0.5z"  horiz-adv-x="1024" />

    
    <glyph glyph-name="icon-test" unicode="&#58891;" d="M886.44608 534.95808h-43.81696v16.0768c0 86.7328-34.43712 168.40704-96.8704 230.22592-62.4128 61.68576-145.22368 95.71328-233.00096 95.71328-87.76704 0-170.41408-34.02752-232.98048-95.71328-62.42304-61.67552-96.84992-143.49312-96.84992-230.22592v-16.0768h-42.50624c-63.8976 0-108.43136-44.02176-108.43136-107.14112v-224.8192c0-59.07456 48.65024-107.14112 108.43136-107.14112h55.82848v-0.28672c0-82.97472 68.44416-150.58944 152.40192-150.58944h50.69824c2.34496-29.67552 27.6992-53.28896 58.48064-53.28896h111.65696c32.23552 0 58.624 26.0608 58.624 57.9072v37.36576c0 31.86688-26.37824 57.91744-58.624 57.91744H457.82016c-30.78144 0-56.13568-23.73632-58.48064-53.57568h-50.69824c-58.18368 0-105.50272 46.76608-105.50272 104.26368v10.4448l1.024 0.99328a18.8416 18.8416 0 0 1 1.60768 1.8944c0.1536 0.14336 0.1536 0.3072 0.29696 0.43008 0.57344 0.73728 1.024 1.31072 1.46432 2.01728 0 0.19456 0.14336 0.19456 0.14336 0.29696 0.45056 0.72704 0.88064 1.32096 1.3312 2.03776 0 0.1536 0.14336 0.1536 0.14336 0.28672 0.44032 0.70656 0.73728 1.4336 1.1776 2.304 0 0.1536 0.13312 0.27648 0.13312 0.44032 0.29696 0.72704 0.59392 1.57696 0.88064 2.33472 0 0.11264 0.1536 0.27648 0.1536 0.27648 0.29696 0.72704 0.59392 1.59744 0.73728 2.44736v0.1536c0.29696 0.8704 0.44032 1.73056 0.59392 2.63168 0 0.12288 0 0.256 0.14336 0.4096 0.1536 0.88064 0.29696 1.7408 0.29696 2.60096v0.44032c0 0.88064 0.1536 1.88416 0.1536 2.7648V551.03488c0 141.32224 116.34688 256.28672 259.34848 256.28672 143.0528 0 259.3792-114.96448 259.3792-256.28672v-420.42368c0-19.28192 15.68768-34.7648 35.15392-34.7648h78.86848c59.76064 0 108.40064 48.06656 108.40064 107.14112V427.80672c0.28672 63.11936-44.22656 107.15136-108.12416 107.15136zM102.32832 202.98752V427.79648c0 31.13984 20.65408 37.66272 38.0928 37.66272h42.6496v-300.12416h-42.6496c-21.10464 0-38.0928 16.95744-38.0928 37.65248z m822.21056 0c0-20.69504-17.152-37.65248-38.0928-37.65248h-43.81696V465.4592h43.81696c17.41824 0 38.0928-6.52288 38.0928-37.65248v-224.8192z m0 0"  horiz-adv-x="1024" />

    
    <glyph glyph-name="icon-test1" unicode="&#58892;" d="M931.62496 800.43008H102.10304c-44.52352 0-80.75264-36.82304-80.75264-82.10432v-682.30144C21.3504-9.25696 57.57952-46.08 102.10304-46.08h829.52192c44.53376 0 80.75264 36.82304 80.75264 82.10432v682.2912c0 45.28128-36.21888 82.11456-80.75264 82.11456z m31.06816-764.40576c0-17.41824-13.9264-31.58016-31.05792-31.58016H102.10304c-17.11104 0-31.04768 14.16192-31.04768 31.58016V485.02784h891.63776v-449.00352z m0 499.53792H71.05536V718.31552c0 17.41824 13.93664 31.56992 31.04768 31.56992h829.52192c17.13152 0 31.05792-14.16192 31.05792-31.56992v-182.75328z m-775.2704 141.4656c-19.03616 0-34.46784-15.69792-34.46784-35.05152 0-12.50304 6.57408-24.08448 17.23392-30.35136 10.67008-6.2464 23.79776-6.2464 34.4576 0a35.18464 35.18464 0 0 1 17.24416 30.35136c0 19.3536-15.43168 35.05152-34.46784 35.05152z m107.10016 0c-19.02592 0-34.46784-15.69792-34.46784-35.05152 0-19.34336 15.43168-35.04128 34.46784-35.04128 19.0464 0 34.46784 15.69792 34.46784 35.04128 0 19.3536-15.4112 35.05152-34.46784 35.05152z m107.10016 0c-19.03616 0-34.46784-15.69792-34.46784-35.05152 0-19.34336 15.43168-35.04128 34.46784-35.04128s34.46784 15.69792 34.46784 35.04128c0 19.3536-15.43168 35.05152-34.46784 35.05152z m72.8576-528.96768c2.83648-1.06496 5.76512-1.57696 8.62208-1.57696 10.10688 0 19.58912 6.32832 23.30624 16.50688l63.47776 174.26432c4.7616 13.08672-1.82272 27.62752-14.68416 32.48128-12.87168 4.84352-27.17696-1.83296-31.93856-14.94016l-63.46752-174.27456c-4.75136-13.07648 1.81248-27.61728 14.68416-32.4608z m-214.34368 105.7792c0.04096-0.43008 0.08192-0.8704 0.1536-1.26976 0.04096-0.37888 0.13312-0.72704 0.19456-1.08544 0.09216-0.44032 0.17408-0.89088 0.28672-1.31072l0.31744-1.06496c0.12288-0.41984 0.24576-0.83968 0.4096-1.24928 0.11264-0.36864 0.27648-0.72704 0.43008-1.08544a29.696 29.696 0 0 1 0.49152-1.14688c0.19456-0.39936 0.4096-0.77824 0.60416-1.16736l0.54272-0.99328c0.23552-0.41984 0.52224-0.8192 0.79872-1.21856 0.18432-0.28672 0.36864-0.57344 0.57344-0.84992 0.3072-0.4096 0.62464-0.78848 0.95232-1.18784l0.49152-0.6144 0.24576-0.27648 0.3072-0.31744c0.512-0.55296 1.05472-1.06496 1.61792-1.54624l0.06144-0.06144 66.39616-58.14272a24.51456 24.51456 0 0 1 16.18944-6.11328c6.99392 0 13.9264 2.9696 18.85184 8.7552a25.56928 25.56928 0 0 1-2.62144 35.64544l-45.02528 39.43424 47.5648 43.6736c10.1888 9.35936 10.97728 25.33376 1.78176 35.6864s-24.90368 11.17184-35.09248 1.82272l-68.47488-62.8736-0.18432-0.2048c-0.3072-0.27648-0.6144-0.60416-0.9216-0.93184-0.3072-0.31744-0.6144-0.64512-0.89088-0.9728l-0.18432-0.18432c-0.17408-0.2048-0.32768-0.41984-0.48128-0.62464-0.3072-0.39936-0.63488-0.80896-0.9216-1.20832-0.2048-0.27648-0.37888-0.5632-0.5632-0.8704l-0.768-1.2288c-0.18432-0.33792-0.34816-0.68608-0.512-1.00352-0.2048-0.4096-0.39936-0.79872-0.57344-1.19808-0.17408-0.37888-0.3072-0.75776-0.47104-1.14688-0.13312-0.3584-0.27648-0.7168-0.39936-1.09568-0.14336-0.43008-0.24576-0.82944-0.36864-1.28-0.09216-0.3584-0.2048-0.69632-0.27648-1.06496-0.11264-0.41984-0.18432-0.86016-0.256-1.30048-0.06144-0.36864-0.13312-0.72704-0.18432-1.09568a24.6784 24.6784 0 0 1-0.12288-1.28l-0.07168-1.1264v-1.24928c0-0.4096 0-0.80896 0.04096-1.20832a7.31136 7.31136 0 0 1 0.06144-1.16736z m451.2256 3.1232l-45.04576-39.43424a25.55904 25.55904 0 0 1-2.62144-35.62496 24.576 24.576 0 0 1 35.05152-2.6624l66.38592 58.14272 0.07168 0.06144c0.55296 0.50176 1.0752 1.00352 1.60768 1.56672 0.12288 0.1024 0.19456 0.2048 0.29696 0.29696 0.08192 0.1024 0.19456 0.18432 0.256 0.27648 0.16384 0.21504 0.31744 0.39936 0.48128 0.63488a64.9216 64.9216 0 0 1 0.98304 1.16736c0.19456 0.27648 0.34816 0.5632 0.5632 0.84992 0.27648 0.39936 0.54272 0.79872 0.80896 1.21856 0.17408 0.32768 0.34816 0.64512 0.512 0.99328 0.21504 0.38912 0.44032 0.768 0.6144 1.16736 0.18432 0.37888 0.33792 0.74752 0.49152 1.14688l0.45056 1.08544c0.1536 0.4096 0.26624 0.84992 0.38912 1.24928 0.11264 0.3584 0.2048 0.72704 0.29696 1.06496 0.12288 0.41984 0.2048 0.8704 0.3072 1.31072 0.06144 0.3584 0.12288 0.70656 0.2048 1.08544 0.04096 0.39936 0.1024 0.83968 0.17408 1.26976 0.01024 0.37888 0.08192 0.768 0.08192 1.14688 0.04096 0.39936 0.04096 0.79872 0.04096 1.20832v1.24928c-0.03072 0.3584-0.04096 0.74752-0.08192 1.1264l-0.14336 1.28c-0.03072 0.36864-0.11264 0.72704-0.17408 1.09568l-0.256 1.32096a11.66336 11.66336 0 0 1-0.28672 1.05472c-0.09216 0.43008-0.23552 0.84992-0.3584 1.28-0.12288 0.37888-0.28672 0.73728-0.4096 1.09568-0.1536 0.38912-0.29696 0.768-0.47104 1.16736a19.94752 19.94752 0 0 1-0.57344 1.14688c-0.16384 0.33792-0.32768 0.68608-0.53248 1.03424-0.22528 0.4096-0.48128 0.80896-0.72704 1.20832a25.4464 25.4464 0 0 1-1.4848 2.07872c-0.19456 0.21504-0.32768 0.44032-0.50176 0.64512l-0.19456 0.18432c-0.26624 0.32768-0.58368 0.64512-0.88064 0.9728a13.45536 13.45536 0 0 1-0.94208 0.93184l-0.17408 0.2048-68.48512 62.8736a24.55552 24.55552 0 0 1-35.09248-1.82272 25.6 25.6 0 0 1 1.78176-35.6864l47.58528-43.66336z"  horiz-adv-x="1024" />

    
    <glyph glyph-name="icon-test2" unicode="&#58893;" d="M697.67168-112.64c-63.08864 0-121.52832 16.14848-159.13984 43.66336a307.84512 307.84512 0 0 0-35.45088 0.01024C465.52064-96.49152 407.04-112.64 343.93088-112.64c-118.95808 0-205.312 52.59264-205.312 125.11232 0 35.28704 20.97152 66.8672 58.55232 89.52832-0.57344 0.8704-1.15712 1.72032-1.71008 2.60096-21.99552-15.89248-46.45888-20.4288-68.85376-12.96384-67.01056 22.48704-70.656 138.04544-40.0896 235.39712 16.36352 52.02944 46.56128 92.79488 71.76192 119.86944a136.28416 136.28416 0 0 0-0.39936 10.3424c0 28.23168 7.41376 55.66464 22.016 81.68448v1.2288c0 187.71968 153.0368 340.48 341.16608 340.48C709.1712 880.64 862.208 727.87968 862.208 540.14976v-0.37888c14.91968-26.2656 22.4768-53.9648 22.4768-82.52416 0-3.71712-0.13312-7.43424-0.45056-11.18208 24.89344-26.92096 54.7328-67.3792 70.98368-118.9888 30.59712-97.37216 26.95168-212.96128-40.0896-235.4688-22.46656-7.5264-46.73536-2.93888-68.70016 12.82048a69.84704 69.84704 0 0 0-1.71008-2.57024c37.43744-22.69184 58.28608-54.21056 58.28608-89.38496 0.01024-72.51968-86.34368-125.11232-205.33248-125.11232z m-151.05024 93.9008c6.03136 0 11.8784-2.12992 16.42496-6.06208 27.61728-23.53152 79.19616-38.144 134.61504-38.144 85.54496 0 155.09504 33.83296 155.09504 75.40736 0 22.07744-20.16256 43.03872-55.23456 57.4976a24.832 24.832 0 0 0-14.65344 16.62976 24.576 24.576 0 0 0 4.54656 21.58592 319.61088 319.61088 0 0 1 31.1808 47.33952 25.10848 25.10848 0 0 0 19.58912 13.04576 24.92416 24.92416 0 0 0 21.89312-8.74496c9.84064-11.60192 25.61024-25.58976 38.912-21.13536 25.69216 8.63232 35.13344 88.0128 8.22272 173.63968-15.14496 48.11776-44.98432 85.18656-67.33824 107.776a24.60672 24.60672 0 0 0-6.8096 21.41184c0.9216 5.50912 1.3312 10.6496 1.3312 15.7184 0 21.66784-6.37952 42.88512-19.00544 63.17056a24.7296 24.7296 0 0 0-3.65568 14.63296c0.11264 1.71008 0.19456 3.36896 0.19456 5.09952 0 160.33792-130.48832 290.816-290.85696 290.816s-290.83648-130.47808-290.83648-290.816c0-1.92512 0.08192-3.84 0.22528-5.69344a24.70912 24.70912 0 0 0-3.61472-14.6432c-12.38016-20.09088-18.67776-41.14432-18.67776-62.58688 0-4.85376 0.43008-9.87136 1.28-15.13472a24.60672 24.60672 0 0 0-6.89152-21.26848c-22.59968-22.7328-52.76672-60.06784-68.00384-108.4928-26.89024-85.64736-17.50016-165.03808 8.23296-173.63968 13.55776-4.6592 29.16352 9.65632 39.04512 21.32992a25.23136 25.23136 0 0 0 21.94432 8.7552 25.10848 25.10848 0 0 0 19.56864-13.07648 324.17792 324.17792 0 0 1 31.20128-47.39072c4.83328-6.12352 6.52288-14.11072 4.49536-21.62688a24.92416 24.92416 0 0 0-14.67392-16.62976c-35.2256-14.41792-55.45984-35.4304-55.45984-57.57952 0-41.58464 69.55008-75.40736 155.0336-75.40736 55.45984 0 107.0592 14.61248 134.66624 38.18496a24.69888 24.69888 0 0 0 18.37056 5.96992 293.376 293.376 0 0 1 47.81056-0.03072c0.60416 0.08192 1.2288 0.09216 1.83296 0.09216z m0 0"  horiz-adv-x="1024" />

    
    <glyph glyph-name="icon-test3" unicode="&#58894;" d="M642.6112 479.30368c-16.35328 0-32.23552-2.0992-47.9232-5.25312a197.5296 197.5296 0 0 0-91.00288-133.75488c97.18784-35.0208 171.28448-119.86944 192.31744-224.79872 113.8688 1.98656 199.29088 15.0528 199.29088 105.86112 0.01024 142.39744-113.09056 257.9456-252.68224 257.9456zM404.7872 661.38112c-82.09408 0-148.6336-67.93216-148.6336-151.73632s66.53952-151.72608 148.6336-151.72608c82.10432 0 148.64384 67.92192 148.64384 151.72608 0 83.80416-66.53952 151.73632-148.64384 151.73632zM152.10496 54.44608c2.75456-102.13376 113.07008-106.20928 252.68224-106.20928 139.60192 0 252.68224 1.62816 252.68224 106.20928 0 142.52032-113.08032 257.9456-252.68224 257.9456-139.48928 0.01024-256.5632-115.53792-252.68224-257.9456z m787.77344 166.912c0-57.31328-13.01504-88.70912-59.46368-121.38496-41.1648-28.94848-118.89664-30.34112-118.89664-30.34112h-60.25216c0.22528-5.0176 0.79872-10.02496 0.79872-15.17568 0-57.30304-12.94336-88.68864-59.46368-121.38496C601.4464-95.88736 523.70432-97.28 523.70432-97.28H271.02208s-66.77504 3.2768-119.1424 45.75232c-28.91776 23.4496-44.35968 56.71936-44.35968 105.984 0 132.12672 82.8928 244.2752 198.49216 285.97248-56.49408 34.41664-94.44352 97.21856-94.44352 169.22624 0 108.89216 86.54848 197.25312 193.2288 197.25312 99.24608 0 180.87936-76.3392 191.8464-174.61248 14.52032-4.78208 29.97248-7.46496 45.96736-7.46496 82.10432 0 148.64384 67.93216 148.64384 151.72608 0 83.80416-66.53952 151.74656-148.64384 151.74656-60.47744 0-112.384-36.90496-135.59808-89.76384l-37.38624 25.43616c31.54944 65.01376 97.06496 109.83424 172.98432 109.83424 106.79296 0 193.2288-88.35072 193.2288-197.25312 0-72.00768-37.98016-134.8096-94.33088-169.23648 115.48672-41.6768 198.36928-153.82528 198.36928-285.96224z m0 0"  horiz-adv-x="1024" />

    
    <glyph glyph-name="fenxiang" unicode="&#58975;" d="M951.272 378.488a31.944 31.944 0 0 1-31.96-31.768v-301c-0.12-38.72-31.568-70.056-70.288-70.056H174.24c-38.704 0-70.144 31.336-70.288 70.056V677.592c0 38.624 31.552 70.056 70.288 70.056h219.96a31.872 31.872 0 0 1 31.936 31.808 31.856 31.856 0 0 1-31.936 31.808H174.24c-73.888 0.056-133.928-59.672-134.208-133.608v-631.928c0.248-73.928 60.32-133.792 134.272-133.728h674.72c74.048 0 134.2 59.912 134.2 133.728V346.664a31.848 31.848 0 0 1-31.952 31.824zM280.352 191.92a31.824 31.824 0 0 1 25.688-37c1.904-0.376 3.872-0.552 5.808-0.552a32.048 32.048 0 0 1 31.44 26.128c0.216 1.344 25.568 135.192 113.896 268.336 51.376 77.4 113.64 139.04 184.984 183.032 68.2 42.008 145.208 68.216 229.84 78.176L767.896 603.104a31.736 31.736 0 0 1 0.496-44.92 31.616 31.616 0 0 1 22.496-9.064c8.6 0 16.96 3.472 22.92 9.68l161.136 165.528 0.304 0.4 0.552 0.496 0.552 0.616 0.056 0.056a2.68 2.68 0 0 1 0.432 0.616l0.504 0.616 0.488 0.616 0.552 0.736 0.304 0.488 0.376 0.464 0.128 0.184v0.144l0.36 0.464 0.504 0.888 0.24 0.496c0 0.032 0 0.128 0.128 0.184 0.064 0.24 0.184 0.456 0.304 0.704l0.312 0.552 0.36 0.8 0.248 0.672 0.304 0.768 0.312 0.736 0.12 0.672 0.312 0.8 0.184 0.704c0.12 0.216 0.12 0.552 0.24 0.832 0 0.248 0.12 0.432 0.12 0.672l0.248 0.864v0.456c0.128 0.464 0.176 0.96 0.248 1.416l0.056 0.68 0.064 0.312v0.36l0.128 0.16V748.504l-0.128 1.08v0.336l-0.064 0.184-0.176 0.952c0 0.184-0.064 0.4-0.064 0.616l-0.064 0.832-0.176 0.52v0.16l-0.072 0.096-0.12 0.648-0.368 1.416-0.376 1.136-0.056 0.184-0.312 0.856v0.08l-0.12 0.304-0.128 0.184-0.304 0.8a5.44 5.44 0 0 0-0.184 0.456v0.064a16.16 16.16 0 0 1-1.416 2.736l-0.744 1.264-0.056 0.088c-0.184 0.248-0.376 0.496-0.496 0.712l-0.064 0.088c-0.064 0.096-0.128 0.248-0.248 0.336-0.056 0.128-0.176 0.248-0.24 0.368l-0.184 0.28-0.24 0.312-0.184 0.28-0.432 0.648c-0.176 0.064-0.24 0.216-0.368 0.312l-0.128 0.184c-0.24 0.248-0.432 0.496-0.672 0.768l-0.184 0.16-0.984 1.016-0.064 0.088-1.04 0.984v0.088l-1.112 0.952-0.064 0.064-1.168 0.832-0.128 0.16-0.984 0.704-0.304 0.216-0.552 0.336-0.496 0.248-0.368 0.28-0.432 0.28-0.496 0.248c-0.184 0.088-0.304 0.216-0.552 0.28l-0.736 0.432c-0.248 0.16-0.496 0.184-0.68 0.28-0.304 0.12-0.496 0.24-0.8 0.336l-0.68 0.336-0.672 0.28c-0.304 0.096-0.616 0.184-0.856 0.312l-0.616 0.16-0.368 0.152L726.72 854.36a31.832 31.832 0 0 1-40.248-20.12c-5.6-16.688 3.44-34.72 20.096-40.288l94.408-31.16c-69.336-14.96-133.72-40.584-192.48-76.784-79.408-48.92-148.24-116.88-204.768-202.128C308.344 340.056 281.432 197.944 280.32 191.92h0.032z"  horiz-adv-x="1024" />

    
    <glyph glyph-name="praise-click" unicode="&#58992;" d="M598.70208 829.73696c-48.21504 0-90.20928-32.88576-99.0976-79.488 0 0-14.36672-72.96-21.8624-99.20512-12.31872-43.27936-55.5008-91.06432-86.67648-106.3936-23.57248-11.67872-111.09888-11.78624-116.5568-11.78624h-119.04c-32.78336 0-59.45856-26.56256-59.45856-59.45344v-475.68896c0-32.77824 26.56768-59.45856 59.45856-59.45856h548.85376c88.2944 0 163.29216 64.59904 176.35328 151.92064l45.96736 306.19136c10.79808 71.88992-44.89728 136.49408-117.64736 136.49408H673.6896s20.0448 66.5344 30.31552 178.9184c5.15584 56.88832-35.2512 111.21152-94.39232 117.31968a93.5936 93.5936 0 0 1-10.91072 0.62976zM155.47392-2.18112v475.6992h118.82496v-475.6992H155.47392z"  horiz-adv-x="1024" />

    
    <glyph glyph-name="praise" unicode="&#58993;" d="M598.70208 829.73696c-48.21504 0-90.20928-32.88576-99.0976-79.488 0 0-14.36672-72.96-21.8624-99.20512-12.31872-43.27936-55.5008-91.06432-86.67648-106.3936-23.57248-11.67872-111.09888-11.78624-116.5568-11.78624h-119.04c-32.78336 0-59.45856-26.56256-59.45856-59.45344v-475.68896c0-32.77824 26.56768-59.45856 59.45856-59.45856h548.85376c88.2944 0 163.29216 64.59904 176.35328 151.92064l45.96736 306.19136c10.79808 71.88992-44.89728 136.49408-117.64736 136.49408H673.6896s20.0448 66.5344 30.31552 178.9184c5.15584 56.88832-35.2512 111.21152-94.39232 117.31968a93.5936 93.5936 0 0 1-10.91072 0.62976zM333.7472-2.18112V475.22816c39.00416 2.56512 67.07712 8.03328 83.67616 16.2816 43.81184 21.64736 99.74784 81.20832 117.4272 143.35488 7.936 27.74016 21.43232 96.30208 23.03488 104.34048 3.43552 18.00192 20.57216 31.18592 40.704 31.18592 1.60768 0 3.21536-0.10752 4.82816-0.22016 28.27776-2.88768 43.40224-29.67552 41.34912-52.81792-9.4208-104.03328-27.85792-166.70208-28.0576-167.13216l-23.14752-76.60032h215.45472c17.5616 0 33.63328-7.3984 45.09696-20.67968 11.4688-13.2864 16.40448-30.21312 13.73184-47.68256l-45.86496-306.19136c-8.77568-58.72128-58.28608-101.23776-117.63712-101.23776H333.7472v-0.01024z m-178.27328 0v475.6992h118.82496v-475.6992H155.47392z"  horiz-adv-x="1024" />

    
    <glyph glyph-name="Collection-click" unicode="&#58994;" d="M266.112-60.8c-12.8 0-27.20256 4.80256-38.4 12.8-19.2 14.40256-28.8 35.2-27.20256 59.20256l24.00256 240-160 179.2c-16 17.60256-20.80256 41.6-12.8 64s25.6 38.4 48 43.20256l235.20256 51.2 121.6 208c11.20256 20.80256 32 32 56.00256 32s44.8-12.8 56.00256-32L690.10944 588.8l235.20256-51.2c22.4-4.80256 41.6-20.80256 48-43.20256s1.60256-46.40256-12.8-64l-160-179.2 24.00256-240c1.60256-24.00256-8.00256-44.8-27.20256-59.20256s-43.20256-16-64-6.4l-220.8 96-220.8-97.60256c-8.00256-3.19488-17.60256-4.79232-25.6-4.79232z"  horiz-adv-x="1024" />

    
    <glyph glyph-name="Collection" unicode="&#58995;" d="M266.112-60.8c-12.8 0-27.20256 4.80256-38.4 12.8-19.2 14.40256-28.8 35.2-27.20256 59.20256l24.00256 240-160 179.2c-16 17.60256-20.80256 41.6-12.8 64s25.6 38.4 48 43.20256l235.20256 51.2 121.6 208c11.20256 20.80256 32 32 56.00256 32s44.8-12.8 56.00256-32L690.10944 588.8l235.20256-51.2c22.4-4.80256 41.6-20.80256 48-43.20256s1.60256-46.40256-12.8-64l-160-179.2 24.00256-240c1.60256-24.00256-8.00256-44.8-27.20256-59.20256s-43.20256-16-64-6.4l-220.8 96-220.8-97.60256c-8.00256-3.19488-17.60256-4.79232-25.6-4.79232z m246.4 166.4c9.6 0 17.60256-1.60256 25.6-4.80256l220.8-97.60256 1.60256 1.60256-24.00256 240c-1.60256 17.60256 4.80256 36.80256 16 49.60256l160 179.2 6.4 33.60256-6.4-32-235.20256 49.59744c-17.60256 3.2-33.60256 14.40256-41.6 30.40256l-121.6 208h-1.59744L390.912 555.19744c-9.6-16-24.00256-27.20256-41.6-30.40256l-236.8-51.2v-1.60256l160-179.2c12.8-12.8 17.60256-32 16-49.60256l-24.00256-240 1.60256-1.60256L486.912 99.2c7.99744 4.79744 16 6.4 25.6 6.4z"  horiz-adv-x="1024" />

    


  </font>
</defs>
</svg>
